<?xml version="1.0" encoding="UTF-8" standalone="no"?>
<!DOCTYPE svg PUBLIC "-//W3C//DTD SVG 1.1//EN" "http://www.w3.org/Graphics/SVG/1.1/DTD/svg11.dtd">
<svg width="100%" height="100%" viewBox="0 0 1007 207" version="1.1" xmlns="http://www.w3.org/2000/svg" xmlns:xlink="http://www.w3.org/1999/xlink" xml:space="preserve" style="fill-rule:evenodd;clip-rule:evenodd;stroke-linejoin:round;stroke-miterlimit:1.5;">
    <g transform="matrix(1,0,0,1,-136.875,-246.875)">
        <g id="Game-Design" transform="matrix(2.65156,0,0,0.454249,-622.775,133.523)">
            <path d="M664.807,278.432C664.807,266.282 663.117,256.417 661.036,256.417L291.442,256.417C289.36,256.417 287.67,266.282 287.67,278.432L287.67,674.691C287.67,686.841 289.36,696.705 291.442,696.705L661.036,696.705C663.117,696.705 664.807,686.841 664.807,674.691L664.807,278.432Z" style="fill:none;"/>
            <clipPath id="_clip1">
                <path d="M664.807,278.432C664.807,266.282 663.117,256.417 661.036,256.417L291.442,256.417C289.36,256.417 287.67,266.282 287.67,278.432L287.67,674.691C287.67,686.841 289.36,696.705 291.442,696.705L661.036,696.705C663.117,696.705 664.807,686.841 664.807,674.691L664.807,278.432Z"/>
            </clipPath>
            <g clip-path="url(#_clip1)">
                <g id="Controller" transform="matrix(0.375538,-0.20248,0.0346876,2.19211,188.632,-232.753)">
                    <g id="Left" transform="matrix(-0.653795,-0.0305437,0.0305437,-0.653795,363,380)">
                        <circle cx="0" cy="0" r="7.639" style="fill-opacity:0.921569;stroke:black;stroke-width:6.37px;"/>
                    </g>
                    <g id="Down" transform="matrix(-0.653795,-0.0305437,0.0305437,-0.653795,375,392)">
                        <circle cx="0" cy="0" r="7.639" style="fill-opacity:0.921569;stroke:black;stroke-width:6.37px;"/>
                    </g>
                    <g id="Top" transform="matrix(-0.653795,-0.0305437,0.0305437,-0.653795,375,368)">
                        <circle cx="0" cy="0" r="7.639" style="fill-opacity:0.921569;stroke:black;stroke-width:6.37px;"/>
                    </g>
                    <g id="Right" transform="matrix(-0.653795,-0.0305437,0.0305437,-0.653795,387,381)">
                        <circle cx="0" cy="0" r="7.639" style="fill-opacity:0.921569;stroke:black;stroke-width:6.37px;"/>
                    </g>
                    <g id="Right1" transform="matrix(0.965988,0,0,0.965988,375,380)">
                        <circle cx="0" cy="0" r="36.232" style="fill:none;stroke:black;stroke-width:6.47px;"/>
                    </g>
                    <g id="Left1" transform="matrix(0.965988,0,0,0.965988,280,380)">
                        <circle cx="0" cy="0" r="36.232" style="fill:none;stroke:black;stroke-width:6.47px;"/>
                    </g>
                    <path d="M310.041,397.959L344.959,397.959" style="fill:none;stroke:black;stroke-width:6.25px;"/>
                    <g transform="matrix(0.677519,0,0,0.914135,91.342,26.7585)">
                        <path d="M285.834,368.919C285.834,368.013 284.842,367.278 283.62,367.278L273.288,367.278C272.066,367.278 271.074,368.013 271.074,368.919L271.074,403.924C271.074,404.83 272.066,405.565 273.288,405.565L283.62,405.565C284.842,405.565 285.834,404.83 285.834,403.924L285.834,368.919Z" style="fill-opacity:0.921569;"/>
                    </g>
                    <g transform="matrix(4.14861e-17,-0.677519,0.914135,5.59746e-17,-73.2415,568.658)">
                        <path d="M285.834,368.919C285.834,368.013 284.842,367.278 283.62,367.278L273.288,367.278C272.066,367.278 271.074,368.013 271.074,368.919L271.074,403.924C271.074,404.83 272.066,405.565 273.288,405.565L283.62,405.565C284.842,405.565 285.834,404.83 285.834,403.924L285.834,368.919Z" style="fill-opacity:0.921569;"/>
                    </g>
                    <path d="M280,345L375,345" style="fill:none;stroke:black;stroke-width:6.25px;"/>
                    <g transform="matrix(1,0,0,1,32.4798,-31.6814)">
                        <path d="M293.236,375.531C293.236,375.531 280.077,362.391 277.496,349.803C274.915,337.215 286.995,331.543 291.858,331.85C296.721,332.157 303.311,334.018 306.547,341.35C309.784,348.682 305.055,356.726 301.282,359.462C297.509,362.197 285.748,361.932 281.119,351.781C276.489,341.629 279.478,335.094 280.354,331.85C281.231,328.605 285.264,322.057 289.319,319.159C293.374,316.261 298.777,313.437 306.163,313.473C313.55,313.51 314.242,319.285 314.206,321.914C314.17,324.543 308.991,330.246 305.4,330.538C301.81,330.83 298.164,330.861 292.752,323.286C287.34,315.711 290.405,307.987 291.107,304.752C291.81,301.518 296.726,295.484 304.18,293.287C311.635,291.09 319.018,293.061 321.748,296.845C324.477,300.628 324.651,302.737 321.074,307.152C317.498,311.567 310.204,312.001 304.058,306.03C297.912,300.06 297.496,292.737 299.995,287.347C302.495,281.958 304.633,279.035 314.864,275.461C325.094,271.887 330.263,275.775 330.616,279.568C330.969,283.361 328.51,285.414 325.312,287.315C322.114,289.216 313.124,285.993 311.15,278.113C309.177,270.234 310.696,261.282 313.382,259.084" style="fill:none;stroke:black;stroke-width:3.54px;"/>
                    </g>
                </g>
                <g id="Tetris" transform="matrix(-1.38778e-17,2.20144,-0.377137,-2.22045e-15,520.024,-1388.06)">
                    <g transform="matrix(0.805109,0,0,0.904414,80.6105,61.4192)">
                        <path d="M800.53,316.737L800.566,304.713L800.706,302.113L800.997,299.347L801.432,295.242L801.438,294.651L801.442,294.551L801.452,294.435L801.469,294.321L801.492,294.209L801.521,294.098L801.557,293.989L801.598,293.883L801.644,293.78L801.696,293.678L801.753,293.58L801.815,293.485L801.882,293.393L801.954,293.304L802.03,293.219L802.11,293.137L802.195,293.058L802.284,292.984L802.376,292.913L802.473,292.846L802.573,292.783L802.677,292.724L802.784,292.67L802.895,292.62L803.008,292.575L803.125,292.534L803.244,292.499L803.366,292.468L803.49,292.443L803.615,292.424L803.743,292.41L803.872,292.402L803.984,292.4L806.225,292.418L813.052,292.448L830.366,292.484L858.868,292.501L858.976,292.504L859.099,292.512L859.221,292.526L859.341,292.545L859.459,292.57L859.575,292.599L859.688,292.633L859.799,292.672L859.907,292.716L860.012,292.764L860.114,292.816L860.213,292.872L860.308,292.932L860.399,292.997L860.487,293.064L860.572,293.136L860.652,293.211L860.728,293.289L860.8,293.371L860.868,293.455L860.931,293.543L860.99,293.634L861.043,293.727L861.092,293.824L861.136,293.922L861.174,294.023L861.207,294.127L861.235,294.232L861.256,294.339L861.272,294.447L861.281,294.556L861.284,294.668L862.323,296.511L862.323,343.52L862.32,343.651L862.306,343.808L862.284,343.962L862.253,344.115L862.214,344.265L862.167,344.413L862.112,344.557L862.105,344.574L862.05,344.698L861.98,344.836L861.903,344.969L861.82,345.099L861.729,345.224L861.633,345.345L861.53,345.461L861.421,345.573L861.307,345.68L861.187,345.782L861.061,345.878L860.931,345.97L860.795,346.056L860.654,346.136L860.509,346.211L860.359,346.279L860.204,346.341L860.046,346.397L859.884,346.446L859.718,346.488L859.549,346.522L859.378,346.55L859.204,346.569L859.028,346.581L858.881,346.585L803.972,346.585L803.825,346.581L803.65,346.569L803.476,346.55L803.304,346.522L803.136,346.488L802.97,346.446L802.808,346.397L802.649,346.341L802.495,346.279L802.345,346.211L802.2,346.136L802.059,346.056L801.923,345.97L801.792,345.878L801.667,345.782L801.547,345.68L801.432,345.573L801.324,345.461L801.221,345.345L801.124,345.224L801.034,345.099L800.95,344.969L800.874,344.836L800.804,344.698L800.741,344.557L800.686,344.413L800.639,344.265L800.6,344.115L800.57,343.962L800.547,343.808L800.534,343.651L800.53,343.52L800.53,333.352L800.53,316.737ZM804.286,295.274L804.721,299.38L805.013,302.147L805.153,304.744L805.188,316.743L805.188,342.438L857.665,342.438L857.665,324.386L857.665,308.097L857.665,296.509L858.631,294.798L830.368,294.816L813.075,294.852L806.258,294.881L804.282,294.898L804.286,295.274Z"/>
                    </g>
                    <g transform="matrix(0.805109,0,0,0.904414,180.611,61.4192)">
                        <path d="M862.323,296.511L862.323,343.52L862.32,343.651L862.306,343.808L862.284,343.962L862.253,344.115L862.214,344.265L862.167,344.413L862.112,344.557L862.105,344.574L862.05,344.698L861.98,344.836L861.903,344.969L861.82,345.099L861.729,345.224L861.633,345.345L861.53,345.461L861.421,345.573L861.307,345.68L861.187,345.782L861.061,345.878L860.931,345.97L860.795,346.056L860.654,346.136L860.509,346.211L860.359,346.279L860.204,346.341L860.046,346.397L859.884,346.446L859.718,346.488L859.549,346.522L859.378,346.55L859.204,346.569L859.028,346.581L858.881,346.585L803.972,346.585L803.825,346.581L803.65,346.569L803.476,346.55L803.304,346.522L803.136,346.488L802.97,346.446L802.808,346.397L802.649,346.341L802.495,346.279L802.345,346.211L802.2,346.136L802.059,346.056L801.923,345.97L801.792,345.878L801.667,345.782L801.547,345.68L801.432,345.573L801.324,345.461L801.221,345.345L801.124,345.224L801.034,345.099L800.95,344.969L800.874,344.836L800.804,344.698L800.741,344.557L800.686,344.413L800.639,344.265L800.6,344.115L800.57,343.962L800.547,343.808L800.534,343.651L800.53,343.52L800.53,333.352L800.53,316.737L800.566,304.713L800.706,302.113L800.997,299.347L801.432,295.242L801.438,294.651L801.442,294.551L801.452,294.435L801.469,294.321L801.492,294.209L801.521,294.098L801.557,293.989L801.598,293.883L801.644,293.78L801.696,293.678L801.753,293.58L801.815,293.485L801.882,293.393L801.954,293.304L802.03,293.219L802.11,293.137L802.195,293.058L802.284,292.984L802.376,292.913L802.473,292.846L802.573,292.783L802.677,292.724L802.784,292.67L802.895,292.62L803.008,292.575L803.125,292.534L803.244,292.499L803.366,292.468L803.49,292.443L803.615,292.424L803.743,292.41L803.872,292.402L803.984,292.4L806.225,292.418L813.052,292.448L830.366,292.484L858.868,292.501L858.976,292.504L859.099,292.512L859.221,292.526L859.341,292.545L859.459,292.57L859.575,292.599L859.688,292.633L859.799,292.672L859.907,292.716L860.012,292.764L860.114,292.816L860.213,292.872L860.308,292.932L860.399,292.997L860.487,293.064L860.572,293.136L860.652,293.211L860.728,293.289L860.8,293.371L860.868,293.455L860.931,293.543L860.99,293.634L861.043,293.727L861.092,293.824L861.136,293.922L861.174,294.023L861.207,294.127L861.235,294.232L861.256,294.339L861.272,294.447L861.281,294.556L861.284,294.668L862.323,296.511ZM804.286,295.274L804.721,299.38L805.013,302.147L805.153,304.744L805.188,316.743L805.188,342.438L857.665,342.438L857.665,324.386L857.665,308.097L857.665,296.509L858.631,294.798L830.368,294.816L813.075,294.852L806.258,294.881L804.282,294.898L804.286,295.274Z"/>
                    </g>
                    <g transform="matrix(0.805109,0,0,0.904414,130.611,11.4192)">
                        <path d="M862.323,296.511L862.323,343.52L862.32,343.651L862.306,343.808L862.284,343.962L862.253,344.115L862.214,344.265L862.167,344.413L862.112,344.557L862.105,344.574L862.05,344.698L861.98,344.836L861.903,344.969L861.82,345.099L861.729,345.224L861.633,345.345L861.53,345.461L861.421,345.573L861.307,345.68L861.187,345.782L861.061,345.878L860.931,345.97L860.795,346.056L860.654,346.136L860.509,346.211L860.359,346.279L860.204,346.341L860.046,346.397L859.884,346.446L859.718,346.488L859.549,346.522L859.378,346.55L859.204,346.569L859.028,346.581L858.881,346.585L803.972,346.585L803.825,346.581L803.65,346.569L803.476,346.55L803.304,346.522L803.136,346.488L802.97,346.446L802.808,346.397L802.649,346.341L802.495,346.279L802.345,346.211L802.2,346.136L802.059,346.056L801.923,345.97L801.792,345.878L801.667,345.782L801.547,345.68L801.432,345.573L801.324,345.461L801.221,345.345L801.124,345.224L801.034,345.099L800.95,344.969L800.874,344.836L800.804,344.698L800.741,344.557L800.686,344.413L800.639,344.265L800.6,344.115L800.57,343.962L800.547,343.808L800.534,343.651L800.53,343.52L800.53,333.352L800.53,316.737L800.566,304.713L800.706,302.113L800.997,299.347L801.432,295.242L801.438,294.651L801.442,294.551L801.452,294.435L801.469,294.321L801.492,294.209L801.521,294.098L801.557,293.989L801.598,293.883L801.644,293.78L801.696,293.678L801.753,293.58L801.815,293.485L801.882,293.393L801.954,293.304L802.03,293.219L802.11,293.137L802.195,293.058L802.284,292.984L802.376,292.913L802.473,292.846L802.573,292.783L802.677,292.724L802.784,292.67L802.895,292.62L803.008,292.575L803.125,292.534L803.244,292.499L803.366,292.468L803.49,292.443L803.615,292.424L803.743,292.41L803.872,292.402L803.984,292.4L806.225,292.418L813.052,292.448L830.366,292.484L858.868,292.501L858.976,292.504L859.099,292.512L859.221,292.526L859.341,292.545L859.459,292.57L859.575,292.599L859.688,292.633L859.799,292.672L859.907,292.716L860.012,292.764L860.114,292.816L860.213,292.872L860.308,292.932L860.399,292.997L860.487,293.064L860.572,293.136L860.652,293.211L860.728,293.289L860.8,293.371L860.868,293.455L860.931,293.543L860.99,293.634L861.043,293.727L861.092,293.824L861.136,293.922L861.174,294.023L861.207,294.127L861.235,294.232L861.256,294.339L861.272,294.447L861.281,294.556L861.284,294.668L862.323,296.511ZM804.286,295.274L804.721,299.38L805.013,302.147L805.153,304.744L805.188,316.743L805.188,342.438L857.665,342.438L857.665,324.386L857.665,308.097L857.665,296.509L858.631,294.798L830.368,294.816L813.075,294.852L806.258,294.881L804.282,294.898L804.286,295.274Z"/>
                    </g>
                    <g transform="matrix(0.805109,0,0,0.904414,130.611,61.4192)">
                        <path d="M862.323,296.511L862.323,343.52L862.32,343.651L862.306,343.808L862.284,343.962L862.253,344.115L862.214,344.265L862.167,344.413L862.112,344.557L862.105,344.574L862.05,344.698L861.98,344.836L861.903,344.969L861.82,345.099L861.729,345.224L861.633,345.345L861.53,345.461L861.421,345.573L861.307,345.68L861.187,345.782L861.061,345.878L860.931,345.97L860.795,346.056L860.654,346.136L860.509,346.211L860.359,346.279L860.204,346.341L860.046,346.397L859.884,346.446L859.718,346.488L859.549,346.522L859.378,346.55L859.204,346.569L859.028,346.581L858.881,346.585L803.972,346.585L803.825,346.581L803.65,346.569L803.476,346.55L803.304,346.522L803.136,346.488L802.97,346.446L802.808,346.397L802.649,346.341L802.495,346.279L802.345,346.211L802.2,346.136L802.059,346.056L801.923,345.97L801.792,345.878L801.667,345.782L801.547,345.68L801.432,345.573L801.324,345.461L801.221,345.345L801.124,345.224L801.034,345.099L800.95,344.969L800.874,344.836L800.804,344.698L800.741,344.557L800.686,344.413L800.639,344.265L800.6,344.115L800.57,343.962L800.547,343.808L800.534,343.651L800.53,343.52L800.53,333.352L800.53,316.737L800.566,304.713L800.706,302.113L800.997,299.347L801.432,295.242L801.438,294.651L801.442,294.551L801.452,294.435L801.469,294.321L801.492,294.209L801.521,294.098L801.557,293.989L801.598,293.883L801.644,293.78L801.696,293.678L801.753,293.58L801.815,293.485L801.882,293.393L801.954,293.304L802.03,293.219L802.11,293.137L802.195,293.058L802.284,292.984L802.376,292.913L802.473,292.846L802.573,292.783L802.677,292.724L802.784,292.67L802.895,292.62L803.008,292.575L803.125,292.534L803.244,292.499L803.366,292.468L803.49,292.443L803.615,292.424L803.743,292.41L803.872,292.402L803.984,292.4L806.225,292.418L813.052,292.448L830.366,292.484L858.868,292.501L858.976,292.504L859.099,292.512L859.221,292.526L859.341,292.545L859.459,292.57L859.575,292.599L859.688,292.633L859.799,292.672L859.907,292.716L860.012,292.764L860.114,292.816L860.213,292.872L860.308,292.932L860.399,292.997L860.487,293.064L860.572,293.136L860.652,293.211L860.728,293.289L860.8,293.371L860.868,293.455L860.931,293.543L860.99,293.634L861.043,293.727L861.092,293.824L861.136,293.922L861.174,294.023L861.207,294.127L861.235,294.232L861.256,294.339L861.272,294.447L861.281,294.556L861.284,294.668L862.323,296.511ZM804.286,295.274L804.721,299.38L805.013,302.147L805.153,304.744L805.188,316.743L805.188,342.438L857.665,342.438L857.665,324.386L857.665,308.097L857.665,296.509L858.631,294.798L830.368,294.816L813.075,294.852L806.258,294.881L804.282,294.898L804.286,295.274Z"/>
                    </g>
                    <g transform="matrix(1.10971,0,0,1.10971,-84.6787,-37.5696)">
                        <rect x="774.195" y="329.429" width="0.992" height="39.65" style="fill:none;stroke:black;stroke-opacity:0.796078;stroke-width:3.75px;"/>
                    </g>
                    <g transform="matrix(1.10971,0,0,1.10971,-34.6787,-37.5696)">
                        <rect x="774.195" y="329.429" width="0.992" height="39.65" style="fill:none;stroke:black;stroke-opacity:0.796078;stroke-width:3.75px;"/>
                    </g>
                    <g transform="matrix(6.79499e-17,-1.10971,1.10971,6.79499e-17,412.43,1184.68)">
                        <rect x="774.195" y="329.429" width="0.992" height="39.65" style="fill:none;stroke:black;stroke-opacity:0.796078;stroke-width:3.75px;"/>
                    </g>
                </g>
                <g id="Ghost" transform="matrix(0.377137,-2.22045e-16,1.38778e-16,2.20144,263.609,-343.655)">
                    <g transform="matrix(0.836616,0,0,0.802025,167.283,101.23)">
                        <clipPath id="_clip2">
                            <rect x="787.617" y="279.943" width="113.008" height="88.3"/>
                        </clipPath>
                        <g clip-path="url(#_clip2)">
                            <ellipse cx="844.443" cy="377.21" rx="51.278" ry="69.927" style="fill:none;stroke:black;stroke-width:5.08px;"/>
                        </g>
                    </g>
                    <g transform="matrix(0.951319,0,0,0.984681,41.096,6.39418)">
                        <path d="M830.615,396.378C830.615,396.378 829.788,424.287 830.615,427.689C831.441,431.091 839.291,438.669 844.916,438.591C850.542,438.512 856.151,423.512 859.995,423.512C863.839,423.512 863.906,438.054 874.083,437.599C884.261,437.145 887.368,421.823 889.859,421.823C892.351,421.823 896.991,437.274 905.058,437.022C913.126,436.77 918.855,425.818 919.964,422.116C921.074,418.414 919.964,396.19 919.964,396.19" style="fill:none;stroke:black;stroke-width:4.3px;"/>
                    </g>
                    <g transform="matrix(1.04193,0,-1.67304e-31,1.13111,-31.7039,-47.9525)">
                        <circle cx="855.78" cy="385.33" r="9.598" style="fill:none;stroke:black;stroke-width:3.83px;"/>
                    </g>
                    <g transform="matrix(1.04193,0,-1.67304e-31,1.13111,-4.65554,-47.7977)">
                        <circle cx="855.78" cy="385.33" r="9.598" style="fill:none;stroke:black;stroke-width:3.83px;"/>
                    </g>
                    <g transform="matrix(1.34317,0,-2.20229e-31,1.48893,-296.806,-188.906)">
                        <ellipse cx="864.549" cy="388.214" rx="3.723" ry="3.358"/>
                    </g>
                    <g transform="matrix(1.34317,0,-2.20229e-31,1.48893,-269.758,-188.751)">
                        <ellipse cx="864.549" cy="388.214" rx="3.723" ry="3.358"/>
                    </g>
                </g>
                <g id="PacMan" transform="matrix(0.292806,0,3.60822e-16,1.70918,634.636,520.59)">
                    <path d="M50.195,-28.98C39.842,-46.913 20.707,-57.96 0,-57.96C-31.989,-57.96 -57.96,-31.989 -57.96,0C-57.96,31.989 -31.989,57.96 0,57.96C24.366,57.96 46.131,42.721 54.465,19.824L0,0L50.195,-28.98Z" style="fill:none;stroke:black;stroke-width:5.37px;"/>
                </g>
                <g id="SpaceInvader" transform="matrix(0.377137,0,0,2.20144,230.778,-295.767)">
                    <g transform="matrix(0.261025,0,0,0.261025,660.7,212.968)">
                        <path d="M635.051,307.482C635.051,305.834 633.713,304.496 632.064,304.496L606.475,304.496C604.827,304.496 603.489,305.834 603.489,307.482L603.489,331.373C603.489,333.021 604.827,334.359 606.475,334.359L632.064,334.359C633.713,334.359 635.051,333.021 635.051,331.373L635.051,307.482Z" style="fill:none;stroke:black;stroke-width:14.37px;"/>
                    </g>
                    <g transform="matrix(0.261025,0,0,0.261025,660.7,212.968)">
                        <path d="M773.652,308.674C773.652,307.158 772.422,305.927 770.905,305.927L748.14,305.927C746.624,305.927 745.393,307.158 745.393,308.674L745.393,330.651C745.393,332.168 746.624,333.399 748.14,333.399L770.905,333.399C772.422,333.399 773.652,332.168 773.652,330.651L773.652,308.674Z" style="fill:none;stroke:black;stroke-width:14.37px;"/>
                    </g>
                    <g transform="matrix(0.261025,0,0,0.261025,660.7,212.968)">
                        <path d="M548.652,281.881C548.652,281.881 497.669,323.903 493.515,333.076C489.362,342.249 489.686,438.372 493.018,445.606C496.349,452.84 529.044,450 536.241,447.62C543.439,445.24 534.174,384.267 539.649,380.21C545.124,376.153 555.65,374.285 561.992,380.157C568.334,386.028 561.197,442.738 563.221,448.185C565.245,453.632 589.323,446.209 594.654,450.622C599.985,455.034 594.544,476.814 599.408,481.004C604.271,485.193 666.578,485.984 671.234,481.937C675.891,477.889 678.984,446.281 671.952,437.381C664.919,428.482 614.289,440.589 609.201,437.381C604.113,434.174 607.493,413.219 608.353,412.658C609.212,412.097 769.873,412.658 769.873,412.658L769.873,438.934C769.873,438.934 708.582,433.22 702.541,437.484C696.499,441.749 697.715,476.932 702.431,482.882C707.146,488.832 777.331,485.288 778.845,480.393C780.358,475.499 777.585,456.558 783.753,451.341C789.922,446.123 814.779,453.091 817.42,450.216C820.061,447.341 816.133,382.886 820.468,378.14C824.804,373.393 838.843,374.226 842.217,379.105C845.591,383.984 840.352,440.389 843.313,448.029C846.274,455.669 882.376,453.753 886.944,447.94C891.512,442.127 889.955,339.774 887.7,335.398C885.444,331.023 872.826,315.336 852.09,299.067C831.355,282.799 830.12,280.906 816.747,269.02C803.374,257.134 779.907,262.158 780.09,245.916C780.274,229.674 816.753,246.504 816.792,229.95C816.831,213.395 815.026,201.895 814.169,192.229C813.312,182.564 781.184,189.299 774.8,192.122C768.415,194.945 739.165,214.352 738.159,230.236C737.154,246.12 740.68,260.722 717.239,260.925C693.798,261.128 664.38,262.16 660.615,261.794C656.85,261.427 641.902,259.577 642.357,231.166C642.812,202.755 607.137,192.962 605.918,192.539C604.698,192.117 569.133,186.917 562.364,190.705C555.594,194.494 556.402,228.255 560.596,237.427C564.791,246.6 594.692,233.759 594.555,253.431C594.419,273.102 572.028,257.115 562.904,265.563C553.779,274.011 547.724,283.414 548.652,281.881Z" style="fill:none;stroke:black;stroke-width:14.37px;"/>
                    </g>
                </g>
                <g id="Title" transform="matrix(0.218669,0,0,1.97078,330.391,-226.98)">
                    <g transform="matrix(1.72469,0,0,1.11704,-356.096,-35.5787)">
                        <text x="497.1px" y="353.372px" style="font-family:'AbeatbyKai', 'abeatbyKai';font-size:62.5px;fill:none;">Game</text>
                        <text x="492.725px" y="382.538px" style="font-family:'AbeatbyKai', 'abeatbyKai';font-size:62.5px;fill:none;">Design</text>
                    </g>
                    <g transform="matrix(1.72469,0,0,1.11704,-356.096,-35.5787)">
                        <text x="497.1px" y="353.372px" style="font-family:'AbeatbyKai', 'abeatbyKai';font-size:62.5px;fill:rgb(0,132,255);">Game</text>
                        <text x="492.725px" y="382.538px" style="font-family:'AbeatbyKai', 'abeatbyKai';font-size:62.5px;fill:rgb(0,132,255);">Design</text>
                    </g>
                </g>
            </g>
            <path d="M664.807,278.432C664.807,266.282 663.117,256.417 661.036,256.417L291.442,256.417C289.36,256.417 287.67,266.282 287.67,278.432L287.67,674.691C287.67,686.841 289.36,696.705 291.442,696.705L661.036,696.705C663.117,696.705 664.807,686.841 664.807,674.691L664.807,278.432Z" style="fill:none;stroke:black;stroke-width:3.29px;"/>
        </g>
    </g>
</svg>
