<?xml version="1.0" encoding="UTF-8" standalone="no"?>
<!DOCTYPE svg PUBLIC "-//W3C//DTD SVG 1.1//EN" "http://www.w3.org/Graphics/SVG/1.1/DTD/svg11.dtd">
<svg width="100%" height="100%" viewBox="0 0 1007 207" version="1.1" xmlns="http://www.w3.org/2000/svg" xmlns:xlink="http://www.w3.org/1999/xlink" xml:space="preserve" style="fill-rule:evenodd;clip-rule:evenodd;stroke-linejoin:round;stroke-miterlimit:1.5;">
    <g transform="matrix(1,0,0,1,-136.875,-246.875)">
        <g id="Game-Design.7c.Hover" transform="matrix(2.65156,0,0,0.454249,-622.775,133.523)">
            <path d="M664.807,278.432C664.807,266.282 663.117,256.417 661.036,256.417L291.442,256.417C289.36,256.417 287.67,266.282 287.67,278.432L287.67,674.691C287.67,686.841 289.36,696.705 291.442,696.705L661.036,696.705C663.117,696.705 664.807,686.841 664.807,674.691L664.807,278.432Z" style="fill:none;"/>
            <clipPath id="_clip1">
                <path d="M664.807,278.432C664.807,266.282 663.117,256.417 661.036,256.417L291.442,256.417C289.36,256.417 287.67,266.282 287.67,278.432L287.67,674.691C287.67,686.841 289.36,696.705 291.442,696.705L661.036,696.705C663.117,696.705 664.807,686.841 664.807,674.691L664.807,278.432Z"/>
            </clipPath>
            <g clip-path="url(#_clip1)">
                <g id="Controller" transform="matrix(0.375197,-0.223004,0.0382036,2.19011,190.027,-164.693)">
                    <g id="Left" transform="matrix(-0.653795,-0.0305437,0.0305437,-0.653795,363,380)">
                        <circle cx="0" cy="0" r="7.639" style="fill-opacity:0.921569;stroke:black;stroke-width:6.37px;"/>
                    </g>
                    <g id="Down" transform="matrix(-0.653795,-0.0305437,0.0305437,-0.653795,375,392)">
                        <circle cx="0" cy="0" r="7.639" style="fill-opacity:0.921569;stroke:black;stroke-width:6.37px;"/>
                    </g>
                    <g id="Top" transform="matrix(-0.653795,-0.0305437,0.0305437,-0.653795,375,368)">
                        <circle cx="0" cy="0" r="7.639" style="fill-opacity:0.921569;stroke:black;stroke-width:6.37px;"/>
                    </g>
                    <g id="Right" transform="matrix(-0.653795,-0.0305437,0.0305437,-0.653795,387,381)">
                        <circle cx="0" cy="0" r="7.639" style="fill-opacity:0.921569;stroke:black;stroke-width:6.37px;"/>
                    </g>
                    <g id="Right1" transform="matrix(0.965988,0,0,0.965988,375,380)">
                        <circle cx="0" cy="0" r="36.232" style="fill:none;stroke:black;stroke-width:6.47px;"/>
                    </g>
                    <g id="Left1" transform="matrix(0.965988,0,0,0.965988,280,380)">
                        <circle cx="0" cy="0" r="36.232" style="fill:none;stroke:black;stroke-width:6.47px;"/>
                    </g>
                    <path d="M310.041,397.959L344.959,397.959" style="fill:none;stroke:black;stroke-width:6.25px;"/>
                    <g transform="matrix(0.677519,0,0,0.914135,91.342,26.7585)">
                        <path d="M285.834,368.919C285.834,368.013 284.842,367.278 283.62,367.278L273.288,367.278C272.066,367.278 271.074,368.013 271.074,368.919L271.074,403.924C271.074,404.83 272.066,405.565 273.288,405.565L283.62,405.565C284.842,405.565 285.834,404.83 285.834,403.924L285.834,368.919Z" style="fill-opacity:0.921569;"/>
                    </g>
                    <g transform="matrix(4.14861e-17,-0.677519,0.914135,5.59746e-17,-73.2415,568.658)">
                        <path d="M285.834,368.919C285.834,368.013 284.842,367.278 283.62,367.278L273.288,367.278C272.066,367.278 271.074,368.013 271.074,368.919L271.074,403.924C271.074,404.83 272.066,405.565 273.288,405.565L283.62,405.565C284.842,405.565 285.834,404.83 285.834,403.924L285.834,368.919Z" style="fill-opacity:0.921569;"/>
                    </g>
                    <path d="M280,345L375,345" style="fill:none;stroke:black;stroke-width:6.25px;"/>
                    <g transform="matrix(1,0,0,1,32.4798,-31.6814)">
                        <path d="M293.236,375.531C293.236,375.531 280.077,362.391 277.496,349.803C274.915,337.215 286.995,331.543 291.858,331.85C296.721,332.157 303.311,334.018 306.547,341.35C309.784,348.682 305.055,356.726 301.282,359.462C297.509,362.197 285.748,361.932 281.119,351.781C276.489,341.629 279.478,335.094 280.354,331.85C281.231,328.605 285.264,322.057 289.319,319.159C293.374,316.261 298.777,313.437 306.163,313.473C313.55,313.51 314.242,319.285 314.206,321.914C314.17,324.543 308.991,330.246 305.4,330.538C301.81,330.83 298.164,330.861 292.752,323.286C287.34,315.711 290.405,307.987 291.107,304.752C291.81,301.518 296.726,295.484 304.18,293.287C311.635,291.09 319.018,293.061 321.748,296.845C324.477,300.628 324.651,302.737 321.074,307.152C317.498,311.567 310.204,312.001 304.058,306.03C297.912,300.06 297.496,292.737 299.995,287.347C302.495,281.958 304.633,279.035 314.864,275.461C325.094,271.887 330.263,275.775 330.616,279.568C330.969,283.361 328.51,285.414 325.312,287.315C322.114,289.216 313.124,285.993 311.15,278.113C309.177,270.234 310.696,261.282 313.382,259.084" style="fill:none;stroke:black;stroke-width:3.54px;"/>
                    </g>
                </g>
                <g id="Tetris" transform="matrix(-5.20417e-18,2.20144,-0.377137,-2.19269e-15,520.015,-1233.96)">
                    <g transform="matrix(0.805109,0,0,0.904414,80.6105,61.4192)">
                        <path d="M862.323,343.52L862.32,343.651L862.306,343.808L862.284,343.962L862.253,344.115L862.214,344.265L862.167,344.413L862.112,344.557L862.05,344.698L861.98,344.836L861.903,344.969L861.82,345.099L861.729,345.224L861.633,345.345L861.53,345.461L861.421,345.573L861.307,345.68L861.187,345.782L861.061,345.878L860.931,345.97L860.795,346.056L860.654,346.136L860.509,346.211L860.359,346.279L860.204,346.341L860.046,346.397L859.884,346.446L859.718,346.488L859.549,346.522L859.378,346.55L859.204,346.569L859.028,346.581L858.881,346.585L841.764,346.585L834.046,346.423L822.329,346.138L810.262,345.853L803.985,345.738L803.873,345.734L803.746,345.725L803.62,345.709L803.496,345.689L803.374,345.662L803.255,345.631L803.138,345.595L803.024,345.554L802.913,345.508L802.805,345.457L802.7,345.403L802.599,345.344L802.502,345.281L802.408,345.214L802.318,345.143L802.233,345.069L802.151,344.991L802.073,344.91L802,344.826L801.932,344.738L801.868,344.648L801.809,344.554L801.754,344.458L801.705,344.359L801.661,344.257L801.623,344.153L801.591,344.047L801.564,343.939L801.543,343.83L801.528,343.719L801.52,343.607L801.518,343.509L801.533,342.886L801.572,334.454L801.578,321.525L801.555,308.483L801.511,299.71L801.436,294.651L801.438,294.55L801.447,294.435L801.463,294.32L801.485,294.207L801.513,294.096L801.547,293.987L801.587,293.88L801.633,293.775L801.684,293.673L801.74,293.574L801.801,293.478L801.868,293.384L801.939,293.294L802.014,293.207L802.095,293.124L802.179,293.044L802.268,292.968L802.361,292.896L802.457,292.827L802.558,292.763L802.662,292.702L802.77,292.646L802.881,292.595L802.996,292.548L803.113,292.506L803.234,292.469L803.357,292.437L803.482,292.411L803.61,292.39L803.739,292.375L803.87,292.365L803.984,292.362L811.044,292.279L829.307,292.012L857.541,291.577L858.881,291.577L859.028,291.58L859.204,291.592L859.378,291.611L859.549,291.639L859.718,291.673L859.884,291.715L860.046,291.764L860.204,291.82L860.359,291.882L860.509,291.95L860.654,292.025L860.795,292.105L860.931,292.191L861.061,292.283L861.187,292.38L861.307,292.481L861.421,292.588L861.53,292.7L861.633,292.816L861.729,292.937L861.82,293.063L861.903,293.192L861.98,293.326L862.05,293.463L862.112,293.604L862.167,293.748L862.214,293.896L862.253,294.046L862.284,294.199L862.306,294.353L862.32,294.51L862.323,294.641L862.323,343.52ZM804.146,334.436L804.186,342.857L804.196,343.282L810.292,343.17L822.344,342.885L834.041,342.6L841.742,342.438L857.665,342.438L857.665,336.012L857.665,295.723L857.485,295.723L829.311,295.287L811.073,295.02L804.279,294.941L804.208,299.734L804.163,308.496L804.141,321.523L804.146,334.436ZM804.2,343.479L804.202,343.516L804.2,343.475L804.2,343.479Z"/>
                    </g>
                    <g transform="matrix(0.805109,0,0,0.904414,180.611,61.4192)">
                        <path d="M859.994,294.667C859.994,294.106 859.482,293.65 858.852,293.65L804.002,293.65C803.371,293.65 802.859,294.106 802.859,294.667L802.859,343.494C802.859,344.056 803.371,344.511 804.002,344.511L858.852,344.511C859.482,344.511 859.994,344.056 859.994,343.494L859.994,294.667Z" style="fill:none;stroke:black;stroke-width:4.38px;"/>
                    </g>
                    <g transform="matrix(0.805109,0,0,0.904414,130.611,11.4192)">
                        <path d="M862.323,343.52L862.32,343.651L862.306,343.808L862.284,343.962L862.253,344.115L862.214,344.265L862.167,344.413L862.112,344.557L862.05,344.698L861.98,344.836L861.903,344.969L861.82,345.099L861.729,345.224L861.633,345.345L861.53,345.461L861.421,345.573L861.307,345.68L861.187,345.782L861.061,345.878L860.931,345.97L860.795,346.056L860.654,346.136L860.509,346.211L860.359,346.279L860.204,346.341L860.046,346.397L859.884,346.446L859.718,346.488L859.549,346.522L859.378,346.55L859.204,346.569L859.028,346.581L858.881,346.585L841.764,346.585L834.046,346.423L822.329,346.138L810.262,345.853L803.985,345.738L803.873,345.734L803.746,345.725L803.62,345.709L803.496,345.689L803.374,345.662L803.255,345.631L803.138,345.595L803.024,345.554L802.913,345.508L802.805,345.457L802.7,345.403L802.599,345.344L802.502,345.281L802.408,345.214L802.318,345.143L802.233,345.069L802.151,344.991L802.073,344.91L802,344.826L801.932,344.738L801.868,344.648L801.809,344.554L801.754,344.458L801.705,344.359L801.661,344.257L801.623,344.153L801.591,344.047L801.564,343.939L801.543,343.83L801.528,343.719L801.52,343.607L801.518,343.509L801.533,342.886L801.572,334.454L801.578,321.525L801.555,308.483L801.511,299.71L801.436,294.651L801.438,294.55L801.447,294.435L801.463,294.32L801.485,294.207L801.513,294.096L801.547,293.987L801.587,293.88L801.633,293.775L801.684,293.673L801.74,293.574L801.801,293.478L801.868,293.384L801.939,293.294L802.014,293.207L802.095,293.124L802.179,293.044L802.268,292.968L802.361,292.896L802.457,292.827L802.558,292.763L802.662,292.702L802.77,292.646L802.881,292.595L802.996,292.548L803.113,292.506L803.234,292.469L803.357,292.437L803.482,292.411L803.61,292.39L803.739,292.375L803.87,292.365L803.984,292.362L811.044,292.279L829.307,292.012L857.541,291.577L858.881,291.577L859.028,291.58L859.204,291.592L859.378,291.611L859.549,291.639L859.718,291.673L859.884,291.715L860.046,291.764L860.204,291.82L860.359,291.882L860.509,291.95L860.654,292.025L860.795,292.105L860.931,292.191L861.061,292.283L861.187,292.38L861.307,292.481L861.421,292.588L861.53,292.7L861.633,292.816L861.729,292.937L861.82,293.063L861.903,293.192L861.98,293.326L862.05,293.463L862.112,293.604L862.167,293.748L862.214,293.896L862.253,294.046L862.284,294.199L862.306,294.353L862.32,294.51L862.323,294.641L862.323,343.52ZM804.146,334.436L804.186,342.857L804.196,343.282L810.292,343.17L822.344,342.885L834.041,342.6L841.742,342.438L857.665,342.438L857.665,336.012L857.665,295.723L857.485,295.723L829.311,295.287L811.073,295.02L804.279,294.941L804.208,299.734L804.163,308.496L804.141,321.523L804.146,334.436ZM804.2,343.479L804.202,343.516L804.2,343.475L804.2,343.479Z"/>
                    </g>
                    <g transform="matrix(0.805062,0.00875664,-0.00983671,0.90436,133.539,54.1544)">
                        <path d="M859.994,294.667C859.994,294.106 859.482,293.65 858.852,293.65L804.002,293.65C803.371,293.65 802.859,294.106 802.859,294.667L802.859,343.494C802.859,344.056 803.371,344.511 804.002,344.511L858.852,344.511C859.482,344.511 859.994,344.056 859.994,343.494L859.994,294.667Z" style="fill:none;stroke:black;stroke-width:4.38px;"/>
                    </g>
                    <g transform="matrix(1.10971,0,0,1.10971,-84.6787,-37.5696)">
                        <rect x="774.195" y="329.429" width="0.992" height="39.65" style="fill:none;stroke:black;stroke-opacity:0.796078;stroke-width:3.75px;"/>
                    </g>
                    <g transform="matrix(1.10971,0,0,1.10971,-34.6787,-37.5696)">
                        <rect x="774.195" y="329.429" width="0.992" height="39.65" style="fill:none;stroke:black;stroke-opacity:0.796078;stroke-width:3.75px;"/>
                    </g>
                    <g transform="matrix(6.79499e-17,-1.10971,1.10971,6.79499e-17,412.43,1184.68)">
                        <rect x="774.195" y="329.429" width="0.992" height="39.65" style="fill:none;stroke:black;stroke-opacity:0.796078;stroke-width:3.75px;"/>
                    </g>
                </g>
                <g id="Ghost" transform="matrix(0.377137,-2.22045e-16,1.38778e-16,2.20144,267.38,-343.655)">
                    <g transform="matrix(0.836616,0,0,0.802025,167.283,101.23)">
                        <clipPath id="_clip2">
                            <rect x="787.617" y="279.943" width="113.008" height="88.3"/>
                        </clipPath>
                        <g clip-path="url(#_clip2)">
                            <ellipse cx="844.443" cy="377.21" rx="51.278" ry="69.927" style="fill:none;stroke:black;stroke-width:5.08px;"/>
                        </g>
                    </g>
                    <g transform="matrix(0.951319,0,0,0.984681,41.096,6.39418)">
                        <path d="M830.615,396.378C830.615,396.378 829.788,424.287 830.615,427.689C831.441,431.091 839.291,438.669 844.916,438.591C850.542,438.512 856.151,423.512 859.995,423.512C863.839,423.512 863.906,438.054 874.083,437.599C884.261,437.145 887.368,421.823 889.859,421.823C892.351,421.823 896.991,437.274 905.058,437.022C913.126,436.77 918.855,425.818 919.964,422.116C921.074,418.414 919.964,396.19 919.964,396.19" style="fill:none;stroke:black;stroke-width:4.3px;"/>
                    </g>
                    <g transform="matrix(1.04193,0,-1.67304e-31,1.13111,-31.7039,-47.9525)">
                        <circle cx="855.78" cy="385.33" r="9.598" style="fill:none;stroke:black;stroke-width:3.83px;"/>
                    </g>
                    <g transform="matrix(1.04193,0,-1.67304e-31,1.13111,-4.65554,-47.7977)">
                        <circle cx="855.78" cy="385.33" r="9.598" style="fill:none;stroke:black;stroke-width:3.83px;"/>
                    </g>
                    <g transform="matrix(1.34317,0,-2.20229e-31,1.48893,-296.806,-188.906)">
                        <ellipse cx="864.549" cy="388.214" rx="3.723" ry="3.358"/>
                    </g>
                    <g transform="matrix(1.34317,0,-2.20229e-31,1.48893,-269.758,-188.751)">
                        <ellipse cx="864.549" cy="388.214" rx="3.723" ry="3.358"/>
                    </g>
                </g>
                <g id="PacMan" transform="matrix(0.292806,0,3.60822e-16,1.70918,638.407,520.59)">
                    <path d="M57.08,-10.065C52.196,-37.765 28.128,-57.96 0,-57.96C-31.989,-57.96 -57.96,-31.989 -57.96,0C-57.96,31.989 -31.989,57.96 0,57.96C32.011,57.96 57.96,32.011 57.96,0L0,0L57.08,-10.065Z" style="fill:none;stroke:black;stroke-width:5.37px;"/>
                </g>
                <g id="Explosion" transform="matrix(0.377137,0,0,2.20144,232.985,-293.942)">
                    <g transform="matrix(1.02776,0,0,1.02776,-18.0194,-8.95622)">
                        <path d="M781.333,266.558L810.523,295.747" style="fill:none;stroke:black;stroke-width:3.65px;"/>
                    </g>
                    <g transform="matrix(0.685171,0,0,0.685171,274.654,82.3625)">
                        <path d="M781.333,266.558L810.523,295.747" style="fill:none;stroke:black;stroke-width:5.47px;"/>
                    </g>
                    <g transform="matrix(0.685171,0,0,-0.685171,274.654,517.637)">
                        <path d="M781.333,266.558L810.523,295.747" style="fill:none;stroke:black;stroke-width:5.47px;"/>
                    </g>
                    <g transform="matrix(1.02776,0,0,-1.02776,-18.0194,608.956)">
                        <path d="M781.333,266.558L810.523,295.747" style="fill:none;stroke:black;stroke-width:3.65px;"/>
                    </g>
                    <g transform="matrix(0.649483,0,0,1.76905,268.882,-242.432)">
                        <path d="M779.263,306.623L810.057,306.755" style="fill:none;stroke:black;stroke-width:2.81px;"/>
                    </g>
                    <g transform="matrix(-1.02776,0,0,1.02776,1688.02,-8.95622)">
                        <path d="M781.333,266.558L810.523,295.747" style="fill:none;stroke:black;stroke-width:3.65px;"/>
                    </g>
                    <g transform="matrix(-0.685171,0,0,0.685171,1395.35,82.3625)">
                        <path d="M781.333,266.558L810.523,295.747" style="fill:none;stroke:black;stroke-width:5.47px;"/>
                    </g>
                    <g transform="matrix(-0.685171,0,0,-0.685171,1395.35,517.637)">
                        <path d="M781.333,266.558L810.523,295.747" style="fill:none;stroke:black;stroke-width:5.47px;"/>
                    </g>
                    <g transform="matrix(-1.02776,0,0,-1.02776,1688.02,608.956)">
                        <path d="M781.333,266.558L810.523,295.747" style="fill:none;stroke:black;stroke-width:3.65px;"/>
                    </g>
                    <g transform="matrix(-0.649483,0,0,1.76905,1401.12,-242.432)">
                        <path d="M779.263,306.623L810.057,306.755" style="fill:none;stroke:black;stroke-width:2.81px;"/>
                    </g>
                </g>
                <g id="Title" transform="matrix(0.218669,0,0,1.97078,330.391,-226.98)">
                    <g transform="matrix(1.72469,0,0,1.11704,-356.096,-35.5787)">
                        <text x="497.1px" y="353.372px" style="font-family:'AbeatbyKai', 'abeatbyKai';font-size:62.5px;fill:none;">Game</text>
                        <text x="492.725px" y="382.538px" style="font-family:'AbeatbyKai', 'abeatbyKai';font-size:62.5px;fill:none;">Design</text>
                    </g>
                    <g transform="matrix(1.72469,0,0,1.11704,-356.096,-35.5787)">
                        <text x="497.1px" y="353.372px" style="font-family:'AbeatbyKai', 'abeatbyKai';font-size:62.5px;fill:rgb(0,132,255);">Game</text>
                        <text x="492.725px" y="382.538px" style="font-family:'AbeatbyKai', 'abeatbyKai';font-size:62.5px;fill:rgb(0,132,255);">Design</text>
                    </g>
                </g>
            </g>
            <path d="M664.807,278.432C664.807,266.282 663.117,256.417 661.036,256.417L291.442,256.417C289.36,256.417 287.67,266.282 287.67,278.432L287.67,674.691C287.67,686.841 289.36,696.705 291.442,696.705L661.036,696.705C663.117,696.705 664.807,686.841 664.807,674.691L664.807,278.432Z" style="fill:none;stroke:black;stroke-width:3.29px;"/>
        </g>
    </g>
</svg>
