<?xml version="1.0" encoding="UTF-8" standalone="no"?><!DOCTYPE svg PUBLIC "-//W3C//DTD SVG 1.1//EN" "http://www.w3.org/Graphics/SVG/1.1/DTD/svg11.dtd"><svg width="100%" height="100%" viewBox="0 0 518 114" version="1.1" xmlns="http://www.w3.org/2000/svg" xmlns:xlink="http://www.w3.org/1999/xlink" xml:space="preserve" style="fill-rule:evenodd;clip-rule:evenodd;stroke-linejoin:round;stroke-miterlimit:1.41421;"><path id="Line" d="M58.934,54.837l25.09,0.075l53.357,0.185l50.29,0.156l98.28,0.223l48.303,0.118l44,0.13l39.283,0.158l45.002,0.209l52.423,0.261l0.784,0.523l-0.784,0.523l-52.423,0.261l-45.002,0.209l-39.283,0.158l-44,0.13l-48.303,0.118l-98.28,0.223l-50.29,0.156l-53.357,0.185l-25.09,0.075l-22.573,0.045l-18.959,0l-14.252,-0.027l-0.01,0l-1.442,-0.605l-0.604,-1.441l0,-0.01l0,-0.01l0.604,-1.441l1.442,-0.605l0.01,0l14.252,-0.027l18.959,0l22.573,0.045Z" style="fill:#393939;"/><path d="M2.678,2.231l0.208,10.675l0.24,13.936l0.107,7.52l0.088,7.602l0.058,7.468l0.022,7.121l-0.032,7.641l-0.082,8.737l-0.117,9.183l-0.134,8.975l-0.251,14.72l-0.108,5.707l-0.007,0.359l-1.59,0l-0.007,-0.359l-0.108,-5.707l-0.251,-14.72l-0.134,-8.975l-0.117,-9.183l-0.082,-8.737l-0.032,-7.641l0.022,-7.121l0.058,-7.468l0.088,-7.602l0.107,-7.52l0.24,-13.936l0.208,-10.675l0.008,-0.356l1.59,0l0.008,0.356Z"/></svg>