<?xml version="1.0" encoding="UTF-8" standalone="no"?><!DOCTYPE svg PUBLIC "-//W3C//DTD SVG 1.1//EN" "http://www.w3.org/Graphics/SVG/1.1/DTD/svg11.dtd"><svg width="100%" height="100%" viewBox="0 0 1213 117" version="1.1" xmlns="http://www.w3.org/2000/svg" xmlns:xlink="http://www.w3.org/1999/xlink" xml:space="preserve" style="fill-rule:evenodd;clip-rule:evenodd;stroke-linejoin:round;stroke-miterlimit:1.41421;"><g><path id="Line" d="M423.992,44.286l43.305,0.06l92.088,0.148l86.798,0.125l169.623,0.179l83.368,0.094l75.939,0.104l67.8,0.126l77.669,0.168l90.478,0.208l0.627,0.419l-0.627,0.418l-90.478,0.209l-77.669,0.167l-67.8,0.127l-75.939,0.103l-83.368,0.095l-169.623,0.178l-86.798,0.125l-92.088,0.148l-43.305,0.06l-38.958,0.036l-32.723,0l-24.597,-0.021l-0.01,0l-1.151,-0.484l-0.484,-1.151l0,-0.01l0,-0.01l0.484,-1.152l1.151,-0.483l0.01,0l24.597,-0.022l32.723,0l38.958,0.036Z" style="fill:#393939;"/><path d="M3.835,102.95l0.019,0.067l0.02,0.068l0.022,0.066l0.023,0.067l0.025,0.066l0.026,0.066l0.027,0.066l0.029,0.066l0.03,0.066l0.032,0.065l0.034,0.066l0.035,0.065l0.036,0.065l0.038,0.065l0.039,0.065l0.041,0.065l0.043,0.065l0.044,0.064l0.046,0.065l0.047,0.064l0.049,0.065l0.051,0.064l0.052,0.065l0.054,0.064l0.056,0.064l0.057,0.064l0.059,0.064l0.061,0.064l0.062,0.064l0.064,0.064l0.066,0.063l0.068,0.064l0.069,0.063l0.071,0.063l0.072,0.063l0.075,0.063l0.076,0.063l0.078,0.063l0.079,0.062l0.081,0.062l0.083,0.063l0.085,0.061l0.086,0.062l0.089,0.062l0.089,0.061l0.092,0.061l0.093,0.061l0.095,0.061l0.097,0.061l0.098,0.06l0.101,0.06l0.101,0.06l0.104,0.059l0.105,0.059l0.107,0.06l0.108,0.058l0.111,0.059l0.112,0.058l0.113,0.058l0.115,0.058l0.117,0.057l0.119,0.057l0.12,0.057l0.122,0.057l0.124,0.056l0.125,0.056l0.126,0.056l0.129,0.055l0.13,0.055l0.132,0.055l0.133,0.055l0.135,0.054l0.136,0.054l0.138,0.053l0.14,0.053l0.141,0.053l0.143,0.053l0.145,0.052l0.146,0.052l0.147,0.052l0.149,0.051l0.151,0.051l0.152,0.051l0.154,0.05l0.155,0.05l0.157,0.05l0.159,0.049l0.16,0.049l0.161,0.049l0.163,0.048l0.165,0.048l0.166,0.048l0.166,0.047l0.341,0.094l0.346,0.092l0.351,0.091l0.358,0.09l0.363,0.088l0.369,0.087l0.375,0.086l0.381,0.084l0.386,0.083l0.393,0.081l0.397,0.08l0.404,0.079l0.409,0.078l0.415,0.076l0.42,0.075l0.425,0.073l0.432,0.072l0.436,0.071l0.442,0.069l0.447,0.068l0.453,0.067l0.458,0.065l0.463,0.064l0.469,0.063l0.474,0.061l0.479,0.06l0.484,0.059l0.489,0.058l0.494,0.056l0.499,0.055l0.505,0.053l0.509,0.052l0.435,0.044l0.079,0.008l0.519,0.05l0.524,0.049l0.529,0.047l0.534,0.047l0.539,0.045l0.543,0.044l0.548,0.042l0.553,0.042l0.558,0.04l0.562,0.039l0.567,0.037l0.571,0.037l0.577,0.035l0.58,0.034l0.585,0.033l0.59,0.031l0.594,0.031l0.599,0.029l0.602,0.028l0.608,0.027l0.611,0.025l0.616,0.025l0.621,0.023l0.624,0.022l0.629,0.021l0.633,0.02l0.637,0.019l0.641,0.017l0.645,0.016l0.65,0.016l0.653,0.014l0.658,0.013l0.661,0.012l0.666,0.01l0.669,0.01l0.673,0.008l0.678,0.008l0.681,0.006l0.685,0.005l0.688,0.005l0.693,0.003l0.696,0.002l0.7,0.001l0.703,-0.001l0.707,-0.001l0.711,-0.002l0.715,-0.003l0.718,-0.005l0.721,-0.005l0.725,-0.006l0.729,-0.008l0.732,-0.008l0.735,-0.01l0.739,-0.01l0.742,-0.012l0.745,-0.012l0.749,-0.013l0.752,-0.015l0.756,-0.015l0.758,-0.017l0.762,-0.017l0.765,-0.018l0.768,-0.02l0.771,-0.02l0.774,-0.021l0.778,-0.022l0.78,-0.023l0.783,-0.024l0.786,-0.025l0.79,-0.026l0.792,-0.027l0.795,-0.027l0.798,-0.029l0.8,-0.029l0.804,-0.031l0.806,-0.031l0.809,-0.032l0.812,-0.033l0.814,-0.034l0.817,-0.035l1.642,-0.072l1.652,-0.075l1.663,-0.079l1.672,-0.082l1.346,-0.069l0.336,-0.016l1.691,-0.087l1.7,-0.09l1.709,-0.093l1.719,-0.096l1.726,-0.099l1.735,-0.102l1.743,-0.105l1.75,-0.108l1.758,-0.111l1.766,-0.113l1.773,-0.117l1.779,-0.119l1.786,-0.122l1.793,-0.124l1.799,-0.127l1.805,-0.13l1.811,-0.132l1.816,-0.135l1.821,-0.137l1.827,-0.14l1.832,-0.141l0.219,-0.018l1.617,-0.124l1.841,-0.145l1.845,-0.146l1.849,-0.148l1.852,-0.151l1.857,-0.152l1.859,-0.155l1.863,-0.157l1.865,-0.158l1.868,-0.161l1.871,-0.162l1.872,-0.165l1.875,-0.166l1.876,-0.168l1.878,-0.169l1.879,-0.171l1.88,-0.173l1.881,-0.174l1.882,-0.176l1.882,-0.177l0.842,-0.08l1.04,-0.097l1.882,-0.176l1.882,-0.178l1.882,-0.179l1.88,-0.18l1.88,-0.182l1.879,-0.183l1.877,-0.183l1.875,-0.185l1.874,-0.186l1.871,-0.187l1.87,-0.188l1.866,-0.189l1.864,-0.19l1.861,-0.191l1.857,-0.191l1.855,-0.192l1.85,-0.193l1.847,-0.194l0.542,-0.057l1.3,-0.134l1.839,-0.19l1.834,-0.191l1.829,-0.191l1.824,-0.192l1.819,-0.193l1.813,-0.192l1.808,-0.194l1.624,-0.174l0.178,-0.018l1.796,-0.19l1.789,-0.189l1.784,-0.19l1.776,-0.19l1.769,-0.19l1.762,-0.19l1.754,-0.19l1.311,-0.143l0.436,-0.046l1.739,-0.185l1.731,-0.185l1.723,-0.185l1.714,-0.184l3.401,-0.369l2.32,-0.253l1.045,-0.112l3.325,-0.359l3.285,-0.357l3.243,-0.354l2.404,-0.265l0.794,-0.086l3.153,-0.341l3.104,-0.338l3.055,-0.335l3.003,-0.331l2.95,-0.328l2.894,-0.323l2.837,-0.319l2.779,-0.314l2.369,-0.27l0.348,-0.038l2.656,-0.296l2.592,-0.29l2.526,-0.284l2.458,-0.278l2.387,-0.272l2.317,-0.264l2.243,-0.258l2.168,-0.25l2.091,-0.243l2.012,-0.234l1.931,-0.226l1.012,-0.119l0.838,-0.096l1.765,-0.204l1.68,-0.195l1.591,-0.186l1.502,-0.175l2.728,-0.322l2.348,-0.278l1.952,-0.233l1.544,-0.186l0.108,-0.013l0.001,-5.884l0.09,0l0.659,-45.991l0.533,-32.134l0.013,-0.787l0.925,-0.925l0.924,0.925l0.014,0.81l0.532,33.08l0.659,47.343l0.063,5.53l-0.025,0.349l-0.079,0.342l-0.134,0.325l-0.183,0.3l-0.23,0.267l-0.269,0.228l-0.303,0.182l-0.328,0.132l-0.346,0.079l-0.913,0.131l-1.12,0.162l-1.543,0.222l-1.951,0.28l-2.344,0.334l-2.723,0.385l-1.5,0.211l-1.589,0.223l-1.677,0.235l-1.763,0.246l-0.836,0.116l-1.011,0.138l-1.929,0.262l-2.01,0.272l-2.089,0.281l-2.165,0.291l-2.241,0.3l-2.314,0.308l-2.385,0.316l-2.455,0.324l-2.523,0.332l-2.589,0.339l-2.654,0.345l-0.348,0.045l-2.369,0.3l-2.777,0.349l-2.837,0.355l-2.894,0.36l-2.949,0.365l-3.002,0.37l-3.054,0.374l-3.105,0.377l-3.152,0.381l-0.794,0.096l-2.405,0.282l-3.245,0.378l-3.287,0.38l-3.328,0.382l-1.045,0.119l-2.322,0.26l-3.405,0.377l-1.717,0.19l-1.725,0.189l-1.733,0.19l-1.741,0.189l-0.436,0.047l-1.314,0.139l-1.758,0.185l-1.765,0.185l-1.772,0.184l-1.78,0.185l-1.786,0.184l-1.794,0.184l-1.799,0.184l-0.178,0.018l-1.628,0.162l-1.812,0.178l-1.818,0.179l-1.823,0.178l-1.829,0.178l-1.834,0.177l-1.838,0.176l-1.843,0.176l-1.304,0.124l-0.544,0.05l-1.852,0.171l-1.856,0.169l-1.86,0.169l-1.863,0.168l-1.867,0.167l-1.869,0.167l-1.872,0.165l-1.875,0.164l-1.877,0.164l-1.88,0.162l-1.881,0.162l-1.883,0.16l-1.884,0.159l-1.886,0.158l-1.886,0.156l-1.888,0.156l-1.888,0.154l-1.888,0.153l-1.043,0.083l-0.845,0.066l-1.889,0.146l-1.888,0.145l-1.888,0.143l-1.886,0.142l-1.886,0.139l-1.885,0.139l-1.883,0.136l-1.881,0.135l-1.879,0.134l-1.877,0.131l-1.875,0.13l-1.872,0.127l-1.87,0.126l-1.866,0.124l-1.863,0.122l-1.86,0.12l-1.856,0.117l-1.851,0.116l-1.848,0.113l-1.623,0.098l-0.22,0.013l-1.839,0.107l-1.834,0.105l-1.829,0.102l-1.823,0.1l-1.818,0.097l-1.812,0.095l-1.807,0.093l-1.8,0.09l-1.793,0.087l-1.787,0.085l-1.78,0.083l-1.773,0.079l-1.766,0.077l-1.758,0.075l-1.75,0.071l-1.742,0.069l-1.734,0.066l-1.725,0.063l-1.717,0.06l-1.708,0.057l-1.699,0.054l-0.337,0.01l-1.352,0.04l-1.68,0.046l-1.67,0.042l-1.66,0.04l-1.65,0.037l-0.821,0.017l-0.819,0.016l-0.815,0.015l-0.813,0.015l-0.81,0.014l-0.808,0.013l-0.804,0.012l-0.802,0.011l-0.799,0.01l-0.796,0.01l-0.794,0.009l-0.79,0.008l-0.787,0.007l-0.785,0.006l-0.781,0.005l-0.778,0.004l-0.775,0.004l-0.773,0.002l-0.769,0.002l-0.765,0.001l-0.763,0l-0.76,-0.001l-0.756,-0.002l-0.753,-0.003l-0.749,-0.004l-0.747,-0.005l-0.743,-0.005l-0.739,-0.007l-0.737,-0.008l-0.732,-0.008l-0.73,-0.009l-0.725,-0.011l-0.723,-0.011l-0.719,-0.013l-0.715,-0.013l-0.711,-0.014l-0.708,-0.015l-0.705,-0.017l-0.7,-0.017l-0.697,-0.018l-0.694,-0.02l-0.689,-0.02l-0.686,-0.021l-0.681,-0.022l-0.678,-0.024l-0.675,-0.024l-0.67,-0.025l-0.666,-0.027l-0.662,-0.027l-0.659,-0.029l-0.654,-0.029l-0.65,-0.031l-0.647,-0.032l-0.642,-0.033l-0.638,-0.033l-0.633,-0.035l-0.63,-0.036l-0.626,-0.038l-0.621,-0.038l-0.617,-0.039l-0.613,-0.04l-0.608,-0.042l-0.604,-0.043l-0.6,-0.043l-0.595,-0.045l-0.591,-0.046l-0.586,-0.047l-0.582,-0.049l-0.578,-0.049l-0.573,-0.051l-0.568,-0.052l-0.564,-0.053l-0.559,-0.054l-0.554,-0.055l-0.55,-0.056l-0.546,-0.058l-0.54,-0.059l-0.536,-0.06l-0.531,-0.061l-0.526,-0.063l-0.08,-0.009l-0.441,-0.055l-0.517,-0.065l-0.511,-0.067l-0.507,-0.068l-0.502,-0.069l-0.497,-0.07l-0.492,-0.072l-0.486,-0.072l-0.482,-0.074l-0.477,-0.076l-0.472,-0.076l-0.466,-0.078l-0.462,-0.079l-0.456,-0.081l-0.451,-0.082l-0.446,-0.083l-0.441,-0.084l-0.436,-0.086l-0.43,-0.087l-0.425,-0.089l-0.419,-0.089l-0.415,-0.091l-0.408,-0.093l-0.404,-0.094l-0.398,-0.095l-0.393,-0.097l-0.387,-0.098l-0.382,-0.099l-0.376,-0.101l-0.371,-0.103l-0.365,-0.103l-0.36,-0.106l-0.353,-0.106l-0.176,-0.054l-0.173,-0.055l-0.173,-0.054l-0.17,-0.056l-0.17,-0.055l-0.168,-0.056l-0.166,-0.056l-0.165,-0.057l-0.164,-0.057l-0.162,-0.057l-0.161,-0.058l-0.159,-0.058l-0.158,-0.059l-0.157,-0.059l-0.155,-0.059l-0.154,-0.06l-0.152,-0.06l-0.151,-0.061l-0.149,-0.061l-0.148,-0.061l-0.146,-0.062l-0.146,-0.062l-0.143,-0.063l-0.142,-0.063l-0.141,-0.064l-0.139,-0.064l-0.138,-0.064l-0.136,-0.065l-0.135,-0.065l-0.134,-0.066l-0.131,-0.067l-0.131,-0.066l-0.129,-0.067l-0.127,-0.068l-0.126,-0.068l-0.125,-0.069l-0.123,-0.069l-0.122,-0.07l-0.12,-0.07l-0.118,-0.07l-0.117,-0.072l-0.116,-0.071l-0.114,-0.072l-0.113,-0.073l-0.111,-0.073l-0.109,-0.074l-0.109,-0.075l-0.106,-0.074l-0.105,-0.076l-0.104,-0.076l-0.102,-0.077l-0.1,-0.077l-0.099,-0.078l-0.097,-0.078l-0.096,-0.079l-0.094,-0.08l-0.093,-0.08l-0.091,-0.081l-0.089,-0.081l-0.088,-0.082l-0.086,-0.083l-0.085,-0.084l-0.083,-0.084l-0.081,-0.085l-0.08,-0.085l-0.078,-0.087l-0.076,-0.087l-0.075,-0.087l-0.073,-0.089l-0.071,-0.089l-0.07,-0.089l-0.067,-0.091l-0.066,-0.091l-0.065,-0.092l-0.062,-0.093l-0.06,-0.093l-0.059,-0.094l-0.057,-0.095l-0.055,-0.096l-0.053,-0.096l-0.051,-0.097l-0.049,-0.098l-0.027,-0.056l-0.02,-0.043l-0.045,-0.099l-0.043,-0.1l-0.042,-0.1l-0.039,-0.101l-0.037,-0.102l-0.035,-0.102l-0.032,-0.103l-0.031,-0.104l-0.029,-0.104l-0.026,-0.105l-0.022,-0.096l0.681,-1.117l1.116,0.683l0.02,0.077Z" style="fill:#4d4d4d;"/></g></svg>