<?xml version="1.0" encoding="UTF-8" standalone="no"?>
<!DOCTYPE svg PUBLIC "-//W3C//DTD SVG 1.1//EN" "http://www.w3.org/Graphics/SVG/1.1/DTD/svg11.dtd">
<svg width="100%" height="100%" viewBox="0 0 1007 207" version="1.1" xmlns="http://www.w3.org/2000/svg" xmlns:xlink="http://www.w3.org/1999/xlink" xml:space="preserve" style="fill-rule:evenodd;clip-rule:evenodd;stroke-linejoin:round;stroke-miterlimit:1.5;">
    <g transform="matrix(1,0,0,1,-136.875,-496.875)">
        <g id="LifeStyle" transform="matrix(2.65156,0,0,0.454249,-622.775,383.523)">
            <path d="M664.807,278.432C664.807,266.282 663.117,256.417 661.036,256.417L291.442,256.417C289.36,256.417 287.67,266.282 287.67,278.432L287.67,674.691C287.67,686.841 289.36,696.705 291.442,696.705L661.036,696.705C663.117,696.705 664.807,686.841 664.807,674.691L664.807,278.432Z" style="fill:none;"/>
            <clipPath id="_clip1">
                <path d="M664.807,278.432C664.807,266.282 663.117,256.417 661.036,256.417L291.442,256.417C289.36,256.417 287.67,266.282 287.67,278.432L287.67,674.691C287.67,686.841 289.36,696.705 291.442,696.705L661.036,696.705C663.117,696.705 664.807,686.841 664.807,674.691L664.807,278.432Z"/>
            </clipPath>
            <g clip-path="url(#_clip1)">
                <g id="IceCream" transform="matrix(0.37538,0.114835,-0.019138,2.13161,480.991,-836.127)">
                    <g id="Cone">
                        <g transform="matrix(-0.466505,-5.71304e-17,8.04945e-17,-0.657288,393.245,1041.03)">
                            <path d="M380.398,529.123L439.806,673.763L320.991,673.763L380.398,529.123Z" style="fill:none;stroke:black;stroke-width:7.47px;"/>
                        </g>
                        <g transform="matrix(1,0,0,1,0.0261931,2.81111)">
                            <path d="M225.092,661.319C215.472,657.005 198.823,635.05 198.823,635.05" style="fill:none;stroke:black;stroke-width:0.85px;"/>
                        </g>
                        <g transform="matrix(1,0,0,1,-0.795086,3.59521)">
                            <path d="M231.42,639.611C216.708,630.087 189.98,598.171 189.98,598.171" style="fill:none;stroke:black;stroke-width:0.85px;"/>
                        </g>
                        <path d="M237.573,618.503C232.084,616.674 217.241,598.171 217.241,598.171" style="fill:none;stroke:black;stroke-width:0.85px;"/>
                        <path d="M233.979,630.834C224.091,627.565 201.316,598.171 201.316,598.171" style="fill:none;stroke:black;stroke-width:0.85px;"/>
                        <path d="M227.244,653.939C219.219,650.731 194.902,621.597 194.902,621.597" style="fill:none;stroke:black;stroke-width:0.85px;"/>
                        <path d="M221.823,672.535C215.989,670.701 204.783,655.495 204.783,655.495" style="fill:none;stroke:black;stroke-width:0.85px;"/>
                        <g transform="matrix(1,0,0,1,0.0574849,0.851822)">
                            <path d="M210.843,676.283C210.843,676.283 222.126,667.093 224.798,662.328" style="fill:none;stroke:black;stroke-width:0.85px;"/>
                        </g>
                        <path d="M208.075,666.786C208.075,666.786 223.67,654.052 229.845,645.016" style="fill:none;stroke:black;stroke-width:0.85px;"/>
                        <g transform="matrix(1,0,0,1,-0.200077,-0.645026)">
                            <path d="M205.282,657.207C205.282,657.207 229.236,635.997 234.935,627.554" style="fill:none;stroke:black;stroke-width:0.85px;"/>
                        </g>
                        <g transform="matrix(1,0,0,1,-0.294144,-0.600232)">
                            <path d="M202.259,646.835C202.259,646.835 237.717,614.328 240.446,608.648" style="fill:none;stroke:black;stroke-width:0.85px;"/>
                        </g>
                        <g transform="matrix(1,0,0,1,1.65064,1.8328)">
                            <path d="M198.209,632.942C198.373,632.894 228.935,606.454 232.98,598.171" style="fill:none;stroke:black;stroke-width:0.85px;"/>
                        </g>
                        <path d="M195.64,624.129C195.64,624.129 219.59,603.571 221.598,598.171" style="fill:none;stroke:black;stroke-width:0.85px;"/>
                        <path d="M192.251,612.504C192.251,612.504 204.233,602.919 206.584,598.171" style="fill:none;stroke:black;stroke-width:0.85px;"/>
                    </g>
                    <g transform="matrix(0.999182,-0.0404464,0.0465616,1.15025,213.704,583.943)">
                        <clipPath id="_clip2">
                            <rect x="-37.905" y="-37.79" width="75.032" height="39.704"/>
                        </clipPath>
                        <g clip-path="url(#_clip2)">
                            <circle cx="0" cy="0" r="34.33" style="fill:none;stroke:black;stroke-width:3.93px;"/>
                        </g>
                    </g>
                    <g transform="matrix(0.999182,-0.0404464,0.0404464,0.999182,-25.1945,9.51982)">
                        <path d="M180.932,584.55C181.864,592.411 170.974,588.629 174.921,593.935C178.868,599.241 182.468,608.287 184.588,601.416C186.707,594.545 192.885,594.904 194.595,593.377C196.305,591.85 190.473,590.379 203.44,599.391C216.407,608.402 211.958,592.759 213.995,592.851C216.032,592.943 218.993,598.08 223.877,600.045C228.762,602.011 232.501,593.783 234.04,594.059C235.578,594.335 238.044,607.134 242.873,602.717C247.701,598.3 248.211,601.559 251.969,599.671C255.727,597.783 256.927,594.599 256.748,592.384C256.569,590.168 249.616,588.024 249.711,585.563" style="fill:white;stroke:black;stroke-width:4.23px;"/>
                    </g>
                    <g transform="matrix(-0.940867,-0.246668,-0.253018,0.993527,569.606,29.6839)">
                        <path d="M180.932,584.55C181.864,592.411 170.974,588.629 174.921,593.935C178.868,599.241 182.468,608.287 184.588,601.416C186.707,594.545 192.885,594.904 194.595,593.377C196.305,591.85 190.473,590.379 203.44,599.391C216.407,608.402 211.958,592.759 213.995,592.851C216.032,592.943 218.993,598.08 223.877,600.045C228.762,602.011 232.501,593.783 234.04,594.059C235.578,594.335 238.044,607.134 242.873,602.717C247.701,598.3 248.211,601.559 251.969,599.671C255.727,597.783 256.927,594.599 256.748,592.384C256.569,590.168 249.616,588.024 249.711,585.563" style="fill:white;stroke:black;stroke-width:4.23px;"/>
                    </g>
                    <g transform="matrix(-0.940867,-0.246668,-0.286909,1.12661,219.204,556.405)">
                        <clipPath id="_clip3">
                            <rect x="-37.905" y="-37.79" width="75.032" height="39.704"/>
                        </clipPath>
                        <g clip-path="url(#_clip3)">
                            <circle cx="0" cy="0" r="34.33" style="fill:white;stroke:black;stroke-width:3.95px;"/>
                        </g>
                    </g>
                </g>
                <g id="Heart" transform="matrix(0.417355,0.0185617,-0.00285676,2.18864,464.557,448.514)">
                    <path d="M0,-45.017C15.795,-75.028 47.386,-75.028 63.181,-60.022C78.977,-45.017 78.977,-15.006 63.181,15.006C52.124,37.514 23.693,60.022 0,75.028C-23.693,60.022 -52.124,37.514 -63.181,15.006C-78.976,-15.006 -78.976,-45.017 -63.181,-60.022C-47.386,-75.028 -15.795,-75.028 0,-45.017Z" style="fill:white;"/>
                    <path d="M-37.679,-71.381L-37.396,-71.381L-37.112,-71.379L-36.828,-71.375L-36.543,-71.369L-36.259,-71.361L-35.974,-71.351L-35.689,-71.339L-35.404,-71.325L-35.118,-71.309L-34.833,-71.29L-34.547,-71.27L-34.261,-71.248L-33.975,-71.223L-33.689,-71.197L-33.403,-71.168L-33.117,-71.138L-32.83,-71.105L-32.775,-71.098L-32.544,-71.07L-32.257,-71.033L-31.971,-70.994L-31.684,-70.953L-31.398,-70.91L-31.111,-70.865L-30.824,-70.817L-30.538,-70.767L-30.251,-70.716L-29.964,-70.662L-29.678,-70.606L-29.391,-70.547L-29.105,-70.487L-28.818,-70.424L-28.532,-70.359L-28.246,-70.292L-27.96,-70.223L-27.674,-70.152L-27.388,-70.078L-27.102,-70.003L-26.817,-69.925L-26.531,-69.844L-26.246,-69.762L-25.961,-69.677L-25.676,-69.59L-25.392,-69.501L-25.107,-69.41L-24.823,-69.316L-24.539,-69.22L-24.256,-69.122L-23.972,-69.022L-23.689,-68.919L-23.407,-68.814L-23.124,-68.706L-22.842,-68.597L-22.56,-68.485L-22.279,-68.371L-21.998,-68.254L-21.717,-68.135L-21.436,-68.014L-21.157,-67.891L-20.877,-67.765L-20.598,-67.637L-20.319,-67.506L-20.041,-67.373L-19.763,-67.238L-19.486,-67.1L-19.209,-66.96L-18.932,-66.818L-18.656,-66.673L-18.381,-66.526L-18.106,-66.377L-17.832,-66.225L-17.558,-66.07L-17.285,-65.914L-17.012,-65.755L-16.74,-65.593L-16.469,-65.429L-16.198,-65.263L-15.928,-65.094L-15.658,-64.923L-15.389,-64.749L-15.121,-64.573L-14.853,-64.394L-14.586,-64.213L-14.32,-64.03L-14.054,-63.844L-13.789,-63.655L-13.525,-63.464L-13.262,-63.271L-12.999,-63.075L-12.738,-62.876L-12.477,-62.675L-12.216,-62.472L-11.957,-62.266L-11.698,-62.057L-11.44,-61.846L-11.183,-61.633L-10.927,-61.417L-10.672,-61.198L-10.418,-60.977L-10.164,-60.754L-9.912,-60.527L-9.66,-60.299L-9.409,-60.067L-9.159,-59.833L-8.911,-59.597L-8.663,-59.358L-8.416,-59.116L-8.17,-58.872L-7.925,-58.625L-7.681,-58.376L-7.438,-58.124L-7.196,-57.869L-6.956,-57.612L-6.716,-57.352L-6.477,-57.09L-6.24,-56.825L-6.003,-56.557L-5.768,-56.287L-5.534,-56.014L-5.3,-55.738L-5.068,-55.46L-4.838,-55.179L-4.608,-54.896L-4.38,-54.609L-4.152,-54.321L-3.926,-54.029L-3.701,-53.735L-3.478,-53.438L-3.255,-53.139L-3.034,-52.836L-2.814,-52.532L-2.596,-52.224L-2.378,-51.914L-2.162,-51.601L-1.948,-51.285L-1.734,-50.967L-1.522,-50.646L-1.312,-50.322L-1.102,-49.996L-0.894,-49.666L-0.688,-49.334L-0.483,-49L-0.279,-48.662L-0.077,-48.322L0.014,-48.168L0.097,-48.307L0.302,-48.645L0.509,-48.98L0.717,-49.312L0.926,-49.642L1.137,-49.969L1.349,-50.293L1.562,-50.614L1.776,-50.933L1.992,-51.248L2.209,-51.561L2.428,-51.872L2.647,-52.179L2.868,-52.484L3.09,-52.786L3.314,-53.086L3.538,-53.383L3.764,-53.677L3.991,-53.968L4.219,-54.256L4.448,-54.542L4.679,-54.826L4.91,-55.106L5.143,-55.384L5.377,-55.659L5.612,-55.932L5.848,-56.202L6.085,-56.469L6.323,-56.733L6.562,-56.995L6.802,-57.255L7.044,-57.511L7.286,-57.765L7.529,-58.017L7.774,-58.265L8.019,-58.511L8.265,-58.755L8.379,-58.866L8.512,-58.996L8.76,-59.235L9.008,-59.471L9.258,-59.705L9.508,-59.936L9.759,-60.165L10.012,-60.391L10.265,-60.614L10.519,-60.835L10.774,-61.054L11.029,-61.269L11.286,-61.483L11.543,-61.693L11.801,-61.902L12.06,-62.107L12.32,-62.31L12.58,-62.511L12.841,-62.709L13.103,-62.905L13.366,-63.098L13.63,-63.288L13.894,-63.476L14.159,-63.662L14.424,-63.845L14.69,-64.026L14.957,-64.204L15.225,-64.38L15.493,-64.553L15.762,-64.724L16.031,-64.892L16.301,-65.058L16.572,-65.221L16.843,-65.382L17.114,-65.541L17.387,-65.697L17.66,-65.851L17.933,-66.002L18.207,-66.151L18.481,-66.298L18.756,-66.442L19.031,-66.584L19.307,-66.723L19.583,-66.86L19.86,-66.995L20.137,-67.127L20.415,-67.257L20.693,-67.385L20.971,-67.51L21.25,-67.633L21.529,-67.754L21.809,-67.872L22.088,-67.988L22.369,-68.102L22.649,-68.213L22.93,-68.322L23.211,-68.429L23.493,-68.533L23.774,-68.636L24.056,-68.736L24.338,-68.833L24.621,-68.929L24.904,-69.022L25.186,-69.113L25.47,-69.201L25.753,-69.287L26.036,-69.372L26.32,-69.454L26.604,-69.533L26.888,-69.611L27.172,-69.686L27.456,-69.759L27.741,-69.83L28.025,-69.898L28.31,-69.965L28.595,-70.029L28.879,-70.091L29.164,-70.151L29.449,-70.209L29.734,-70.265L30.019,-70.318L30.304,-70.369L30.589,-70.419L30.873,-70.466L31.158,-70.511L31.443,-70.553L31.728,-70.594L32.013,-70.633L32.297,-70.669L32.582,-70.704L32.867,-70.736L33.151,-70.766L33.435,-70.794L33.72,-70.82L34.004,-70.844L34.288,-70.866L34.571,-70.886L34.855,-70.904L35.138,-70.92L35.145,-70.92L35.422,-70.934L35.704,-70.947L35.987,-70.957L36.27,-70.965L36.552,-70.972L36.834,-70.976L37.116,-70.979L37.398,-70.979L37.679,-70.977L37.96,-70.974L38.241,-70.968L38.521,-70.961L38.801,-70.951L39.081,-70.94L39.361,-70.926L39.64,-70.911L39.919,-70.894L40.197,-70.874L40.475,-70.853L40.752,-70.83L41.03,-70.805L41.306,-70.778L41.583,-70.749L41.859,-70.718L42.134,-70.686L42.409,-70.651L42.684,-70.615L42.958,-70.576L43.231,-70.536L43.504,-70.494L43.777,-70.45L44.049,-70.404L44.32,-70.357L44.591,-70.307L44.861,-70.256L45.131,-70.203L45.4,-70.148L45.669,-70.091L45.937,-70.032L46.204,-69.972L46.471,-69.91L46.737,-69.845L47.002,-69.78L47.267,-69.712L47.531,-69.643L47.795,-69.571L48.057,-69.498L48.319,-69.424L48.581,-69.347L48.841,-69.269L49.101,-69.189L49.36,-69.107L49.618,-69.023L49.876,-68.938L50.133,-68.851L50.389,-68.762L50.644,-68.672L50.898,-68.58L51.151,-68.486L51.404,-68.39L51.656,-68.293L51.907,-68.194L52.157,-68.093L52.406,-67.991L52.654,-67.887L52.902,-67.781L53.148,-67.674L53.394,-67.565L53.575,-67.483L53.638,-67.454L53.882,-67.343L54.125,-67.229L54.367,-67.114L54.608,-66.997L54.848,-66.879L55.086,-66.759L55.324,-66.637L55.561,-66.514L55.797,-66.389L56.032,-66.263L56.266,-66.135L56.498,-66.005L56.73,-65.874L56.96,-65.741L57.19,-65.607L57.418,-65.471L57.645,-65.333L57.871,-65.194L58.096,-65.053L58.319,-64.911L58.542,-64.767L58.763,-64.622L58.983,-64.475L59.202,-64.327L59.42,-64.177L59.636,-64.026L59.852,-63.873L60.066,-63.718L60.278,-63.562L60.49,-63.405L60.7,-63.246L60.909,-63.085L61.116,-62.923L61.322,-62.76L61.527,-62.595L61.731,-62.429L61.933,-62.261L62.134,-62.091L62.333,-61.921L62.531,-61.749L62.728,-61.575L62.923,-61.4L63.117,-61.223L63.309,-61.045L63.5,-60.866L63.69,-60.685L63.878,-60.503L64.064,-60.319L64.249,-60.134L64.433,-59.948L64.615,-59.76L64.795,-59.571L64.974,-59.381L65.152,-59.189L65.328,-58.996L65.502,-58.801L65.675,-58.605L65.847,-58.408L66.017,-58.21L66.185,-58.01L66.352,-57.809L66.518,-57.606L66.682,-57.403L66.844,-57.198L67.006,-56.991L67.165,-56.784L67.323,-56.575L67.48,-56.365L67.635,-56.154L67.788,-55.941L67.94,-55.727L68.091,-55.512L68.24,-55.295L68.388,-55.078L68.534,-54.859L68.678,-54.639L68.821,-54.418L68.963,-54.195L69.103,-53.972L69.242,-53.747L69.379,-53.521L69.514,-53.294L69.648,-53.065L69.696,-52.982L69.781,-52.836L69.913,-52.605L70.043,-52.374L70.171,-52.141L70.298,-51.907L70.424,-51.672L70.548,-51.436L70.67,-51.199L70.791,-50.96L70.911,-50.721L71.029,-50.48L71.146,-50.239L71.261,-49.996L71.374,-49.752L71.487,-49.507L71.597,-49.261L71.706,-49.013L71.814,-48.765L71.92,-48.516L72.025,-48.265L72.128,-48.014L72.229,-47.761L72.33,-47.508L72.428,-47.253L72.526,-46.998L72.621,-46.741L72.715,-46.483L72.808,-46.225L72.899,-45.965L72.989,-45.704L73.077,-45.443L73.164,-45.18L73.249,-44.916L73.333,-44.652L73.415,-44.386L73.496,-44.12L73.576,-43.852L73.653,-43.583L73.73,-43.314L73.805,-43.044L73.878,-42.772L73.95,-42.5L74.02,-42.227L74.089,-41.953L74.157,-41.678L74.223,-41.402L74.287,-41.125L74.35,-40.847L74.412,-40.569L74.472,-40.289L74.53,-40.009L74.587,-39.728L74.643,-39.446L74.697,-39.163L74.75,-38.879L74.801,-38.594L74.85,-38.309L74.899,-38.022L74.945,-37.735L74.991,-37.447L75.034,-37.158L75.077,-36.868L75.117,-36.578L75.157,-36.287L75.195,-35.994L75.231,-35.702L75.266,-35.408L75.299,-35.113L75.331,-34.818L75.362,-34.522L75.391,-34.225L75.418,-33.928L75.444,-33.629L75.469,-33.33L75.492,-33.03L75.514,-32.73L75.534,-32.428L75.553,-32.126L75.57,-31.824L75.586,-31.52L75.6,-31.216L75.613,-30.911L75.624,-30.605L75.634,-30.299L75.642,-29.992L75.649,-29.684L75.655,-29.376L75.659,-29.067L75.66,-28.975L75.662,-28.757L75.663,-28.446L75.664,-28.135L75.662,-27.824L75.659,-27.511L75.655,-27.198L75.65,-26.884L75.642,-26.57L75.634,-26.255L75.624,-25.939L75.612,-25.623L75.599,-25.306L75.584,-24.989L75.569,-24.671L75.551,-24.352L75.532,-24.033L75.512,-23.713L75.49,-23.392L75.467,-23.071L75.442,-22.75L75.416,-22.427L75.388,-22.105L75.359,-21.781L75.329,-21.457L75.297,-21.133L75.263,-20.808L75.228,-20.482L75.192,-20.156L75.154,-19.829L75.115,-19.502L75.074,-19.175L75.032,-18.846L74.988,-18.518L74.943,-18.189L74.896,-17.859L74.848,-17.529L74.798,-17.198L74.747,-16.867L74.695,-16.535L74.641,-16.203L74.598,-15.944L74.586,-15.871L74.529,-15.537L74.472,-15.204L74.412,-14.87L74.352,-14.535L74.289,-14.2L74.226,-13.865L74.161,-13.529L74.094,-13.193L74.026,-12.856L73.956,-12.519L73.885,-12.182L73.813,-11.844L73.739,-11.505L73.664,-11.167L73.587,-10.828L73.509,-10.488L73.429,-10.148L73.348,-9.808L73.265,-9.467L73.181,-9.126L73.096,-8.785L73.009,-8.443L72.921,-8.101L72.831,-7.759L72.739,-7.416L72.647,-7.073L72.552,-6.73L72.457,-6.386L72.36,-6.042L72.261,-5.697L72.161,-5.353L72.06,-5.008L71.957,-4.663L71.852,-4.317L71.746,-3.971L71.639,-3.625L71.53,-3.279L71.459,-3.053L71.42,-2.932L71.309,-2.585L71.196,-2.237L71.082,-1.89L70.967,-1.542L70.85,-1.194L70.731,-0.845L70.611,-0.497L70.49,-0.148L70.367,0.201L70.243,0.551L70.117,0.9L69.99,1.25L69.861,1.6L69.731,1.95L69.599,2.3L69.466,2.651L69.332,3.001L69.196,3.352L69.059,3.703L68.92,4.055L68.78,4.406L68.638,4.758L68.495,5.109L68.35,5.461L68.204,5.813L68.056,6.165L67.907,6.517L67.757,6.87L67.605,7.222L67.452,7.575L67.297,7.928L67.141,8.281L66.983,8.634L66.824,8.987L66.663,9.34L66.501,9.693L66.338,10.046L66.173,10.4L66.007,10.753L65.839,11.106L65.669,11.46L65.499,11.814L65.327,12.167L65.153,12.521L64.978,12.875L64.801,13.228L64.623,13.582L64.602,13.624L64.444,13.936L64.263,14.29L64.081,14.644L63.898,14.998L63.717,15.344L63.59,15.602L63.457,15.869L63.322,16.136L63.186,16.403L63.048,16.669L62.909,16.936L62.768,17.203L62.626,17.47L62.482,17.737L62.336,18.003L62.189,18.27L62.04,18.536L61.89,18.803L61.739,19.069L61.586,19.336L61.432,19.602L61.276,19.868L61.118,20.134L60.96,20.4L60.799,20.666L60.638,20.932L60.475,21.198L60.31,21.464L60.144,21.729L59.977,21.995L59.808,22.26L59.638,22.526L59.467,22.791L59.294,23.056L59.12,23.321L58.944,23.586L58.767,23.851L58.589,24.116L58.41,24.38L58.229,24.645L58.047,24.909L57.863,25.174L57.679,25.438L57.493,25.702L57.305,25.966L57.117,26.23L56.927,26.493L56.736,26.757L56.543,27.02L56.35,27.283L56.155,27.547L55.959,27.81L55.762,28.072L55.564,28.335L55.364,28.598L55.163,28.86L54.961,29.122L54.758,29.384L54.554,29.646L54.348,29.908L54.141,30.17L53.934,30.431L53.725,30.692L53.515,30.953L53.304,31.214L53.091,31.475L52.889,31.723L52.878,31.736L52.664,31.996L52.448,32.257L52.232,32.517L52.014,32.777L51.796,33.037L51.576,33.296L51.355,33.556L51.134,33.815L50.911,34.074L50.687,34.333L50.462,34.591L50.236,34.85L50.009,35.108L49.782,35.366L49.553,35.624L49.323,35.881L49.092,36.139L48.861,36.396L48.628,36.653L48.394,36.909L48.16,37.166L47.924,37.422L47.688,37.678L47.451,37.934L47.212,38.189L46.973,38.444L46.733,38.699L46.492,38.954L46.251,39.209L46.008,39.463L45.764,39.717L45.52,39.971L45.275,40.224L45.029,40.477L44.782,40.73L44.534,40.983L44.286,41.235L44.037,41.488L43.787,41.739L43.536,41.991L43.284,42.242L43.032,42.493L42.778,42.744L42.525,42.995L42.27,43.245L42.014,43.495L41.501,43.993L40.986,44.491L40.467,44.987L39.945,45.483L39.421,45.977L38.894,46.469L38.365,46.96L37.833,47.45L37.299,47.939L36.763,48.426L36.224,48.912L35.683,49.396L35.139,49.879L34.594,50.361L34.046,50.841L33.497,51.32L32.946,51.797L32.392,52.272L31.837,52.746L31.281,53.218L30.722,53.689L30.162,54.158L29.601,54.626L29.038,55.091L28.473,55.556L27.907,56.018L27.34,56.479L26.772,56.938L26.202,57.395L25.632,57.85L25.06,58.304L24.487,58.755L23.914,59.205L23.339,59.653L22.764,60.099L22.188,60.543L21.612,60.985L21.034,61.426L20.457,61.864L19.878,62.3L19.3,62.734L18.721,63.166L18.142,63.596L17.562,64.024L16.982,64.45L16.403,64.874L15.823,65.296L15.581,65.471L15.243,65.715L14.664,66.133L14.085,66.548L13.505,66.961L12.927,67.372L12.348,67.78L11.77,68.187L11.193,68.59L10.616,68.992L10.039,69.391L9.463,69.788L8.888,70.182L8.314,70.574L7.74,70.964L7.168,71.351L6.596,71.735L6.026,72.117L5.456,72.496L4.888,72.873L4.321,73.248L3.755,73.619L3.191,73.988L2.628,74.355L2.066,74.718L1.506,75.079L0.948,75.438L0.392,75.793L0.268,75.856L0.136,75.895L0,75.909L-0.136,75.896L-0.268,75.857L-0.392,75.793L-0.95,75.441L-1.51,75.086L-2.072,74.728L-2.635,74.368L-3.2,74.005L-3.766,73.639L-4.333,73.271L-4.902,72.9L-5.472,72.526L-6.044,72.15L-6.616,71.771L-7.189,71.39L-7.764,71.007L-8.339,70.62L-8.915,70.232L-9.492,69.841L-10.07,69.447L-10.649,69.051L-11.228,68.653L-11.807,68.253L-12.387,67.85L-12.968,67.445L-13.549,67.037L-14.13,66.627L-14.712,66.215L-15.293,65.801L-15.875,65.385L-16.457,64.966L-17.038,64.545L-17.62,64.122L-18.201,63.697L-18.783,63.27L-19.364,62.841L-19.945,62.41L-20.525,61.976L-21.105,61.541L-21.684,61.103L-22.263,60.664L-22.841,60.223L-23.418,59.78L-23.995,59.334L-24.571,58.887L-25.146,58.439L-25.72,57.988L-26.293,57.535L-26.864,57.081L-27.435,56.625L-28.005,56.167L-28.573,55.707L-29.14,55.246L-29.705,54.782L-30.269,54.318L-30.832,53.851L-31.372,53.4L-31.392,53.383L-31.952,52.913L-32.509,52.442L-33.065,51.969L-33.619,51.495L-34.171,51.019L-34.722,50.542L-35.27,50.063L-35.816,49.582L-36.36,49.1L-36.901,48.617L-37.441,48.132L-37.978,47.646L-38.513,47.159L-39.045,46.67L-39.574,46.18L-40.101,45.688L-40.626,45.195L-41.148,44.701L-41.666,44.205L-42.182,43.709L-42.439,43.46L-42.696,43.211L-42.951,42.961L-43.206,42.712L-43.46,42.462L-43.713,42.211L-43.965,41.961L-44.217,41.71L-44.468,41.459L-44.718,41.207L-44.967,40.956L-45.216,40.704L-45.463,40.451L-45.71,40.199L-45.956,39.946L-46.201,39.693L-46.445,39.439L-46.689,39.186L-46.931,38.932L-47.173,38.678L-47.414,38.423L-47.654,38.169L-47.893,37.914L-48.131,37.659L-48.368,37.403L-48.604,37.147L-48.839,36.891L-49.074,36.635L-49.307,36.379L-49.54,36.122L-49.771,35.865L-50.002,35.608L-50.231,35.351L-50.46,35.093L-50.687,34.836L-50.914,34.578L-51.139,34.319L-51.364,34.061L-51.587,33.802L-51.81,33.543L-52.031,33.284L-52.252,33.025L-52.471,32.765L-52.689,32.506L-52.907,32.246L-53.123,31.986L-53.338,31.725L-53.552,31.465L-53.765,31.204L-53.976,30.943L-54.187,30.682L-54.396,30.421L-54.605,30.159L-54.812,29.898L-55.018,29.636L-55.223,29.374L-55.427,29.112L-55.629,28.849L-55.831,28.587L-56.031,28.324L-56.23,28.061L-56.428,27.798L-56.624,27.535L-56.819,27.272L-57.014,27.008L-57.206,26.744L-57.398,26.481L-57.588,26.217L-57.778,25.952L-57.965,25.688L-58.152,25.424L-58.337,25.159L-58.521,24.894L-58.704,24.63L-58.885,24.365L-59.065,24.099L-59.244,23.834L-59.422,23.569L-59.598,23.303L-59.772,23.038L-59.946,22.772L-60.118,22.506L-60.288,22.24L-60.457,21.974L-60.625,21.707L-60.792,21.441L-60.957,21.174L-61.12,20.908L-61.283,20.641L-61.443,20.374L-61.603,20.107L-61.761,19.84L-61.917,19.573L-62.072,19.306L-62.225,19.038L-62.377,18.771L-62.528,18.503L-62.677,18.236L-62.825,17.968L-62.971,17.7L-63.115,17.432L-63.258,17.164L-63.399,16.896L-63.539,16.628L-63.678,16.36L-63.814,16.091L-63.95,15.823L-64.076,15.57L-64.255,15.23L-64.441,14.875L-64.625,14.521L-64.808,14.166L-64.989,13.812L-65.169,13.457L-65.347,13.103L-65.524,12.748L-65.7,12.394L-65.874,12.039L-66.046,11.685L-66.217,11.331L-66.387,10.976L-66.555,10.622L-66.722,10.268L-66.887,9.914L-67.051,9.56L-67.214,9.206L-67.375,8.852L-67.534,8.498L-67.692,8.144L-67.849,7.79L-68.004,7.437L-68.158,7.083L-68.31,6.73L-68.346,6.645L-68.461,6.376L-68.61,6.023L-68.758,5.67L-68.904,5.317L-69.05,4.965L-69.193,4.612L-69.335,4.259L-69.476,3.907L-69.615,3.555L-69.753,3.203L-69.889,2.851L-70.024,2.499L-70.158,2.148L-70.29,1.796L-70.42,1.445L-70.549,1.094L-70.677,0.743L-70.803,0.393L-70.928,0.042L-71.051,-0.308L-71.173,-0.658L-71.293,-1.008L-71.412,-1.357L-71.529,-1.706L-71.645,-2.055L-71.76,-2.404L-71.873,-2.753L-71.984,-3.101L-72.094,-3.449L-72.203,-3.797L-72.31,-4.145L-72.416,-4.492L-72.52,-4.839L-72.623,-5.186L-72.725,-5.532L-72.824,-5.878L-72.923,-6.224L-73.02,-6.57L-73.115,-6.915L-73.21,-7.26L-73.302,-7.605L-73.393,-7.949L-73.483,-8.293L-73.571,-8.637L-73.658,-8.98L-73.743,-9.323L-73.827,-9.665L-73.91,-10.008L-73.991,-10.35L-74.07,-10.691L-74.148,-11.032L-74.225,-11.373L-74.3,-11.714L-74.374,-12.054L-74.446,-12.393L-74.516,-12.732L-74.586,-13.071L-74.654,-13.41L-74.72,-13.748L-74.785,-14.085L-74.848,-14.423L-74.91,-14.759L-74.971,-15.096L-75.03,-15.432L-75.087,-15.767L-75.143,-16.102L-75.198,-16.437L-75.251,-16.771L-75.303,-17.104L-75.353,-17.437L-75.402,-17.77L-75.449,-18.102L-75.495,-18.434L-75.539,-18.765L-75.582,-19.096L-75.623,-19.426L-75.663,-19.756L-75.702,-20.085L-75.739,-20.414L-75.774,-20.742L-75.809,-21.07L-75.841,-21.397L-75.872,-21.724L-75.902,-22.05L-75.93,-22.375L-75.957,-22.7L-75.982,-23.025L-76.006,-23.349L-76.028,-23.672L-76.049,-23.995L-76.068,-24.317L-76.086,-24.638L-76.103,-24.959L-76.118,-25.28L-76.131,-25.599L-76.143,-25.919L-76.153,-26.237L-76.162,-26.555L-76.17,-26.872L-76.176,-27.189L-76.181,-27.505L-76.184,-27.821L-76.185,-28.135L-76.186,-28.45L-76.184,-28.763L-76.181,-29.076L-76.177,-29.388L-76.171,-29.7L-76.164,-30.01L-76.155,-30.321L-76.145,-30.63L-76.133,-30.939L-76.12,-31.247L-76.106,-31.554L-76.089,-31.861L-76.072,-32.167L-76.053,-32.472L-76.032,-32.777L-76.01,-33.081L-75.986,-33.384L-75.961,-33.686L-75.935,-33.988L-75.907,-34.288L-75.877,-34.588L-75.846,-34.888L-75.813,-35.186L-75.779,-35.484L-75.744,-35.781L-75.707,-36.077L-75.668,-36.373L-75.628,-36.667L-75.587,-36.961L-75.544,-37.254L-75.499,-37.547L-75.453,-37.838L-75.406,-38.129L-75.357,-38.418L-75.306,-38.707L-75.254,-38.995L-75.201,-39.283L-75.146,-39.569L-75.089,-39.855L-75.031,-40.139L-74.972,-40.423L-74.911,-40.706L-74.848,-40.988L-74.784,-41.269L-74.719,-41.55L-74.652,-41.829L-74.583,-42.107L-74.513,-42.385L-74.442,-42.662L-74.369,-42.937L-74.294,-43.212L-74.218,-43.486L-74.141,-43.759L-74.062,-44.031L-73.981,-44.302L-73.899,-44.572L-73.815,-44.841L-73.73,-45.109L-73.644,-45.377L-73.555,-45.643L-73.466,-45.908L-73.375,-46.172L-73.282,-46.436L-73.188,-46.698L-73.092,-46.959L-72.995,-47.219L-72.896,-47.478L-72.796,-47.736L-72.694,-47.993L-72.591,-48.25L-72.486,-48.504L-72.379,-48.758L-72.272,-49.011L-72.162,-49.263L-72.051,-49.514L-71.939,-49.763L-71.825,-50.012L-71.709,-50.259L-71.592,-50.506L-71.474,-50.751L-71.354,-50.995L-71.232,-51.238L-71.109,-51.48L-70.985,-51.721L-70.859,-51.96L-70.731,-52.199L-70.602,-52.436L-70.471,-52.672L-70.339,-52.907L-70.205,-53.141L-70.07,-53.374L-69.933,-53.605L-69.795,-53.835L-69.655,-54.064L-69.514,-54.292L-69.371,-54.519L-69.227,-54.744L-69.081,-54.969L-68.933,-55.191L-68.784,-55.413L-68.634,-55.634L-68.482,-55.853L-68.329,-56.071L-68.174,-56.287L-68.017,-56.503L-67.859,-56.717L-67.699,-56.93L-67.538,-57.141L-67.376,-57.351L-67.212,-57.56L-67.046,-57.768L-66.879,-57.974L-66.71,-58.179L-66.54,-58.383L-66.369,-58.585L-66.195,-58.786L-66.021,-58.986L-65.844,-59.184L-65.667,-59.381L-65.488,-59.576L-65.307,-59.77L-65.125,-59.963L-64.941,-60.154L-64.756,-60.344L-64.569,-60.533L-64.381,-60.72L-64.191,-60.905L-64,-61.09L-63.807,-61.272L-63.613,-61.454L-63.417,-61.634L-63.22,-61.812L-63.022,-61.989L-62.822,-62.164L-62.62,-62.338L-62.418,-62.511L-62.214,-62.682L-62.008,-62.851L-61.801,-63.019L-61.593,-63.186L-61.384,-63.351L-61.173,-63.514L-60.961,-63.676L-60.748,-63.836L-60.533,-63.995L-60.317,-64.152L-60.1,-64.308L-59.882,-64.462L-59.662,-64.615L-59.441,-64.766L-59.219,-64.916L-58.996,-65.063L-58.771,-65.21L-58.546,-65.355L-58.319,-65.498L-58.091,-65.639L-57.862,-65.78L-57.631,-65.918L-57.4,-66.055L-57.168,-66.19L-56.934,-66.324L-56.699,-66.456L-56.464,-66.586L-56.227,-66.715L-55.989,-66.842L-55.75,-66.967L-55.51,-67.091L-55.269,-67.213L-55.027,-67.334L-54.784,-67.453L-54.54,-67.57L-54.296,-67.685L-54.05,-67.799L-53.803,-67.912L-53.555,-68.022L-53.306,-68.131L-53.057,-68.238L-52.806,-68.344L-52.555,-68.447L-52.303,-68.549L-52.05,-68.65L-51.796,-68.748L-51.541,-68.845L-51.285,-68.94L-51.029,-69.034L-50.771,-69.125L-50.513,-69.215L-50.254,-69.304L-49.994,-69.39L-49.734,-69.475L-49.473,-69.558L-49.211,-69.639L-48.948,-69.718L-48.685,-69.796L-48.42,-69.872L-48.156,-69.946L-47.89,-70.018L-47.624,-70.088L-47.357,-70.157L-47.089,-70.224L-46.821,-70.289L-46.552,-70.352L-46.283,-70.414L-46.013,-70.473L-45.742,-70.531L-45.471,-70.587L-45.199,-70.641L-44.926,-70.693L-44.653,-70.743L-44.38,-70.792L-44.106,-70.838L-43.831,-70.883L-43.556,-70.926L-43.28,-70.967L-43.004,-71.006L-42.728,-71.043L-42.45,-71.078L-42.173,-71.111L-41.895,-71.143L-41.617,-71.172L-41.338,-71.2L-41.058,-71.226L-40.779,-71.249L-40.499,-71.271L-40.218,-71.291L-39.938,-71.309L-39.656,-71.325L-39.375,-71.339L-39.093,-71.351L-38.811,-71.361L-38.528,-71.369L-38.246,-71.375L-37.963,-71.379L-37.679,-71.381ZM0.961,-43.725L0.747,-43.561L0.51,-43.439L0.259,-43.365L0,-43.34C0,-43.34 -0.259,-43.365 -0.259,-43.365L-0.51,-43.439L-0.747,-43.561L-0.961,-43.725L-1.146,-43.929L-1.297,-44.164L-1.479,-44.51L-1.66,-44.849L-1.842,-45.185L-2.026,-45.518L-2.083,-45.62L-2.211,-45.848L-2.397,-46.176L-2.584,-46.501L-2.773,-46.823L-2.963,-47.143L-3.155,-47.46L-3.348,-47.774L-3.542,-48.086L-3.737,-48.395L-3.934,-48.701L-4.131,-49.005L-4.33,-49.306L-4.53,-49.605L-4.732,-49.9L-4.934,-50.194L-5.138,-50.484L-5.343,-50.773L-5.549,-51.058L-5.756,-51.341L-5.964,-51.621L-6.174,-51.899L-6.384,-52.175L-6.596,-52.447L-6.809,-52.717L-7.023,-52.985L-7.237,-53.25L-7.453,-53.513L-7.67,-53.773L-7.888,-54.03L-8.107,-54.285L-8.327,-54.538L-8.549,-54.788L-8.771,-55.035L-8.994,-55.28L-9.218,-55.523L-9.443,-55.763L-9.669,-56.001L-9.895,-56.236L-10.123,-56.469L-10.352,-56.699L-10.582,-56.927L-10.812,-57.152L-11.043,-57.375L-11.276,-57.596L-11.509,-57.814L-11.743,-58.03L-11.978,-58.243L-12.214,-58.454L-12.45,-58.663L-12.687,-58.869L-12.926,-59.072L-13.165,-59.274L-13.404,-59.473L-13.645,-59.67L-13.886,-59.864L-14.128,-60.056L-14.371,-60.246L-14.614,-60.433L-14.859,-60.618L-15.104,-60.8L-15.349,-60.981L-15.596,-61.159L-15.843,-61.334L-16.09,-61.508L-16.339,-61.679L-16.588,-61.848L-16.837,-62.014L-17.088,-62.178L-17.338,-62.34L-17.59,-62.5L-17.842,-62.657L-18.095,-62.812L-18.348,-62.965L-18.602,-63.116L-18.856,-63.264L-19.111,-63.41L-19.367,-63.554L-19.623,-63.696L-19.879,-63.835L-20.136,-63.973L-20.394,-64.108L-20.652,-64.24L-20.91,-64.371L-21.169,-64.499L-21.429,-64.626L-21.688,-64.75L-21.949,-64.871L-22.209,-64.991L-22.47,-65.109L-22.732,-65.224L-22.994,-65.337L-23.256,-65.448L-23.519,-65.557L-23.782,-65.664L-24.045,-65.768L-24.309,-65.871L-24.573,-65.971L-24.837,-66.069L-25.102,-66.165L-25.366,-66.259L-25.632,-66.351L-25.897,-66.441L-26.163,-66.528L-26.429,-66.614L-26.695,-66.697L-26.961,-66.778L-27.228,-66.858L-27.495,-66.935L-27.762,-67.01L-28.029,-67.083L-28.297,-67.154L-28.564,-67.223L-28.832,-67.29L-29.1,-67.355L-29.368,-67.417L-29.636,-67.478L-29.904,-67.537L-30.172,-67.593L-30.441,-67.648L-30.709,-67.701L-30.978,-67.751L-31.246,-67.8L-31.515,-67.847L-31.783,-67.891L-32.052,-67.934L-32.321,-67.975L-32.589,-68.013L-32.858,-68.05L-33.074,-68.078L-33.127,-68.085L-33.395,-68.117L-33.664,-68.148L-33.932,-68.177L-34.201,-68.203L-34.469,-68.228L-34.737,-68.251L-35.005,-68.272L-35.273,-68.291L-35.541,-68.308L-35.809,-68.323L-36.077,-68.337L-36.344,-68.348L-36.611,-68.357L-36.878,-68.365L-37.145,-68.371L-37.412,-68.374L-37.679,-68.376L-37.945,-68.376L-38.211,-68.374L-38.476,-68.371L-38.742,-68.365L-39.007,-68.357L-39.272,-68.348L-39.537,-68.337L-39.801,-68.324L-40.065,-68.309L-40.329,-68.292L-40.592,-68.274L-40.855,-68.253L-41.118,-68.231L-41.38,-68.207L-41.642,-68.181L-41.903,-68.153L-42.164,-68.124L-42.425,-68.093L-42.685,-68.06L-42.945,-68.025L-43.204,-67.988L-43.463,-67.95L-43.721,-67.91L-43.979,-67.868L-44.236,-67.824L-44.493,-67.779L-44.749,-67.731L-45.005,-67.682L-45.26,-67.632L-45.515,-67.579L-45.769,-67.525L-46.022,-67.469L-46.275,-67.412L-46.527,-67.353L-46.779,-67.292L-47.03,-67.229L-47.281,-67.165L-47.53,-67.099L-47.779,-67.031L-48.028,-66.961L-48.275,-66.89L-48.523,-66.818L-48.769,-66.743L-49.014,-66.667L-49.259,-66.589L-49.503,-66.51L-49.747,-66.429L-49.989,-66.346L-50.231,-66.262L-50.472,-66.176L-50.712,-66.089L-50.952,-66L-51.19,-65.909L-51.428,-65.817L-51.665,-65.723L-51.901,-65.627L-52.136,-65.53L-52.371,-65.431L-52.604,-65.331L-52.837,-65.229L-53.068,-65.126L-53.299,-65.021L-53.529,-64.915L-53.758,-64.807L-53.985,-64.697L-54.212,-64.586L-54.438,-64.473L-54.663,-64.359L-54.887,-64.244L-55.11,-64.127L-55.332,-64.008L-55.552,-63.888L-55.772,-63.766L-55.991,-63.643L-56.208,-63.518L-56.425,-63.392L-56.64,-63.265L-56.855,-63.136L-57.068,-63.005L-57.28,-62.873L-57.491,-62.74L-57.701,-62.605L-57.91,-62.469L-58.117,-62.331L-58.323,-62.192L-58.528,-62.052L-58.732,-61.91L-58.935,-61.767L-59.136,-61.622L-59.337,-61.476L-59.536,-61.328L-59.733,-61.18L-59.93,-61.029L-60.125,-60.878L-60.319,-60.725L-60.511,-60.571L-60.702,-60.415L-60.892,-60.258L-61.081,-60.1L-61.268,-59.94L-61.454,-59.779L-61.639,-59.617L-61.822,-59.453L-62.003,-59.288L-62.184,-59.122L-62.363,-58.955L-62.54,-58.786L-62.716,-58.616L-62.891,-58.444L-63.064,-58.271L-63.236,-58.097L-63.407,-57.922L-63.576,-57.745L-63.744,-57.568L-63.91,-57.388L-64.075,-57.208L-64.239,-57.026L-64.401,-56.843L-64.562,-56.659L-64.722,-56.473L-64.88,-56.287L-65.036,-56.099L-65.192,-55.909L-65.346,-55.719L-65.498,-55.527L-65.65,-55.334L-65.799,-55.14L-65.948,-54.944L-66.095,-54.748L-66.241,-54.55L-66.385,-54.351L-66.528,-54.15L-66.67,-53.949L-66.81,-53.746L-66.949,-53.542L-67.086,-53.337L-67.222,-53.13L-67.357,-52.923L-67.49,-52.714L-67.622,-52.504L-67.753,-52.293L-67.882,-52.081L-68.01,-51.868L-68.137,-51.653L-68.262,-51.437L-68.386,-51.221L-68.508,-51.003L-68.629,-50.783L-68.749,-50.563L-68.867,-50.342L-68.984,-50.119L-69.099,-49.895L-69.214,-49.67L-69.326,-49.445L-69.438,-49.217L-69.548,-48.989L-69.656,-48.76L-69.764,-48.53L-69.87,-48.298L-69.974,-48.065L-70.077,-47.832L-70.179,-47.597L-70.28,-47.361L-70.379,-47.124L-70.477,-46.886L-70.573,-46.647L-70.668,-46.407L-70.761,-46.166L-70.854,-45.923L-70.944,-45.68L-71.034,-45.436L-71.122,-45.19L-71.209,-44.944L-71.294,-44.696L-71.378,-44.448L-71.46,-44.198L-71.542,-43.948L-71.621,-43.696L-71.7,-43.444L-71.777,-43.19L-71.852,-42.935L-71.927,-42.68L-72,-42.423L-72.071,-42.166L-72.141,-41.907L-72.21,-41.647L-72.277,-41.387L-72.343,-41.125L-72.408,-40.863L-72.471,-40.6L-72.533,-40.335L-72.593,-40.07L-72.652,-39.804L-72.71,-39.536L-72.766,-39.268L-72.821,-38.999L-72.875,-38.729L-72.927,-38.458L-72.977,-38.186L-73.027,-37.914L-73.075,-37.64L-73.121,-37.365L-73.166,-37.09L-73.21,-36.814L-73.252,-36.536L-73.293,-36.258L-73.333,-35.979L-73.371,-35.7L-73.408,-35.419L-73.443,-35.137L-73.477,-34.855L-73.509,-34.572L-73.541,-34.287L-73.57,-34.003L-73.599,-33.717L-73.626,-33.43L-73.651,-33.143L-73.675,-32.854L-73.698,-32.565L-73.719,-32.275L-73.739,-31.985L-73.758,-31.693L-73.775,-31.401L-73.79,-31.108L-73.805,-30.814L-73.818,-30.52L-73.829,-30.224L-73.839,-29.928L-73.848,-29.631L-73.855,-29.333L-73.861,-29.035L-73.865,-28.736L-73.868,-28.436L-73.87,-28.135L-73.87,-27.834L-73.869,-27.532L-73.866,-27.229L-73.862,-26.926L-73.857,-26.621L-73.85,-26.317L-73.841,-26.011L-73.832,-25.705L-73.821,-25.398L-73.808,-25.09L-73.794,-24.782L-73.779,-24.473L-73.762,-24.163L-73.744,-23.853L-73.724,-23.542L-73.703,-23.23L-73.681,-22.918L-73.657,-22.605L-73.631,-22.291L-73.605,-21.977L-73.576,-21.663L-73.547,-21.347L-73.516,-21.031L-73.483,-20.715L-73.45,-20.397L-73.414,-20.08L-73.378,-19.761L-73.339,-19.442L-73.3,-19.123L-73.259,-18.803L-73.217,-18.482L-73.173,-18.161L-73.128,-17.839L-73.081,-17.517L-73.033,-17.194L-72.983,-16.871L-72.932,-16.547L-72.88,-16.222L-72.826,-15.898L-72.771,-15.572L-72.714,-15.246L-72.656,-14.92L-72.597,-14.593L-72.536,-14.265L-72.473,-13.937L-72.41,-13.609L-72.344,-13.28L-72.278,-12.951L-72.21,-12.621L-72.14,-12.29L-72.069,-11.96L-71.997,-11.629L-71.923,-11.297L-71.848,-10.965L-71.771,-10.632L-71.693,-10.299L-71.613,-9.966L-71.532,-9.632L-71.45,-9.298L-71.366,-8.964L-71.281,-8.629L-71.194,-8.293L-71.106,-7.958L-71.017,-7.622L-70.926,-7.285L-70.833,-6.948L-70.739,-6.611L-70.644,-6.273L-70.547,-5.935L-70.449,-5.597L-70.349,-5.259L-70.248,-4.92L-70.146,-4.58L-70.042,-4.241L-69.937,-3.901L-69.83,-3.56L-69.722,-3.22L-69.612,-2.879L-69.501,-2.538L-69.388,-2.196L-69.275,-1.855L-69.159,-1.513L-69.042,-1.17L-68.924,-0.828L-68.804,-0.485L-68.683,-0.142L-68.561,0.201L-68.437,0.545L-68.311,0.889L-68.184,1.233L-68.056,1.577L-67.926,1.922L-67.795,2.266L-67.662,2.611L-67.528,2.957L-67.393,3.302L-67.256,3.647L-67.117,3.993L-66.978,4.339L-66.836,4.685L-66.694,5.032L-66.549,5.378L-66.439,5.642L-66.404,5.725L-66.257,6.071L-66.108,6.418L-65.958,6.765L-65.807,7.113L-65.654,7.46L-65.5,7.807L-65.344,8.155L-65.187,8.503L-65.028,8.851L-64.868,9.199L-64.706,9.547L-64.543,9.895L-64.379,10.243L-64.213,10.591L-64.046,10.94L-63.877,11.288L-63.707,11.637L-63.536,11.985L-63.363,12.334L-63.188,12.683L-63.012,13.032L-62.835,13.38L-62.656,13.729L-62.476,14.078L-62.287,14.441L-62.152,14.716L-62.023,14.975L-61.893,15.234L-61.761,15.493L-61.628,15.752L-61.493,16.012L-61.356,16.271L-61.218,16.531L-61.079,16.79L-60.937,17.05L-60.795,17.309L-60.651,17.569L-60.505,17.829L-60.358,18.088L-60.209,18.348L-60.059,18.608L-59.907,18.867L-59.754,19.127L-59.6,19.387L-59.444,19.647L-59.286,19.907L-59.128,20.166L-58.967,20.426L-58.806,20.686L-58.643,20.946L-58.478,21.205L-58.312,21.465L-58.145,21.725L-57.976,21.985L-57.806,22.244L-57.635,22.504L-57.462,22.764L-57.288,23.023L-57.112,23.283L-56.935,23.542L-56.757,23.802L-56.578,24.061L-56.397,24.32L-56.215,24.58L-56.032,24.839L-55.847,25.098L-55.661,25.357L-55.474,25.616L-55.286,25.875L-55.096,26.134L-54.905,26.393L-54.713,26.651L-54.519,26.91L-54.325,27.169L-54.129,27.427L-53.932,27.685L-53.733,27.944L-53.534,28.202L-53.333,28.46L-53.131,28.718L-52.928,28.975L-52.724,29.233L-52.519,29.491L-52.312,29.748L-52.105,30.005L-51.896,30.263L-51.686,30.52L-51.475,30.777L-51.263,31.033L-51.05,31.29L-50.836,31.547L-50.621,31.803L-50.404,32.059L-50.187,32.315L-49.968,32.571L-49.749,32.827L-49.528,33.082L-49.306,33.338L-49.084,33.593L-48.86,33.848L-48.635,34.103L-48.409,34.358L-48.183,34.612L-47.955,34.867L-47.726,35.121L-47.497,35.375L-47.266,35.629L-47.035,35.882L-46.802,36.136L-46.569,36.389L-46.334,36.642L-46.099,36.895L-45.863,37.147L-45.626,37.4L-45.388,37.652L-45.149,37.904L-44.909,38.155L-44.668,38.407L-44.427,38.658L-44.185,38.909L-43.941,39.16L-43.697,39.41L-43.452,39.661L-43.207,39.911L-42.96,40.16L-42.713,40.41L-42.465,40.659L-42.216,40.908L-41.966,41.157L-41.715,41.406L-41.464,41.654L-41.212,41.902L-40.96,42.149L-40.451,42.644L-39.941,43.138L-39.427,43.63L-38.911,44.121L-38.391,44.611L-37.87,45.1L-37.345,45.588L-36.818,46.074L-36.289,46.559L-35.757,47.043L-35.223,47.526L-34.686,48.007L-34.148,48.486L-33.607,48.965L-33.064,49.442L-32.519,49.917L-31.972,50.391L-31.423,50.864L-30.872,51.335L-30.32,51.804L-30.3,51.821L-29.765,52.272L-29.209,52.738L-28.652,53.203L-28.093,53.666L-27.532,54.127L-26.97,54.587L-26.407,55.045L-25.843,55.501L-25.277,55.956L-24.71,56.409L-24.142,56.86L-23.573,57.309L-23.003,57.756L-22.433,58.202L-21.861,58.646L-21.289,59.088L-20.716,59.528L-20.142,59.966L-19.568,60.402L-18.993,60.836L-18.418,61.268L-17.843,61.698L-17.267,62.126L-16.691,62.552L-16.114,62.976L-15.538,63.397L-14.962,63.817L-14.385,64.235L-13.809,64.65L-13.232,65.063L-12.656,65.474L-12.081,65.883L-11.505,66.289L-10.93,66.693L-10.356,67.095L-9.782,67.494L-9.208,67.892L-8.635,68.286L-8.063,68.679L-7.492,69.069L-6.921,69.456L-6.351,69.841L-5.783,70.224L-5.215,70.604L-4.648,70.981L-4.083,71.356L-3.519,71.729L-2.956,72.099L-2.394,72.466L-1.834,72.83L-1.275,73.192L-0.718,73.552L-0.163,73.908L0.001,74.013L0.163,73.91L0.164,73.911L0.722,73.558L1.28,73.202L1.841,72.844L2.403,72.482L2.966,72.118L3.531,71.752L4.097,71.383L4.664,71.011L5.233,70.637L5.802,70.26L6.373,69.881L6.944,69.499L7.517,69.115L8.09,68.728L8.664,68.339L9.239,67.948L9.815,67.554L10.391,67.158L10.967,66.759L11.545,66.358L12.122,65.955L12.7,65.55L13.278,65.142L13.856,64.733L14.435,64.321L14.772,64.08L15.013,63.906L15.592,63.49L16.17,63.071L16.749,62.65L17.327,62.227L17.905,61.802L18.482,61.374L19.059,60.945L19.636,60.514L20.213,60.081L20.788,59.646L21.364,59.209L21.938,58.77L22.512,58.329L23.085,57.886L23.657,57.441L24.228,56.995L24.798,56.547L25.367,56.096L25.935,55.645L26.502,55.191L27.068,54.736L27.632,54.279L28.195,53.82L28.756,53.36L29.316,52.898L29.875,52.434L30.432,51.969L30.987,51.502L31.54,51.034L32.091,50.564L32.641,50.093L33.189,49.62L33.734,49.145L34.278,48.67L34.819,48.193L35.359,47.714L35.896,47.234L36.43,46.753L36.963,46.27L37.493,45.786L38.02,45.301L38.545,44.814L39.067,44.327L39.586,43.838L40.103,43.348L40.616,42.856L41.128,42.364L41.382,42.117L41.635,41.87L41.888,41.623L42.14,41.376L42.391,41.128L42.642,40.88L42.892,40.631L43.141,40.383L43.389,40.134L43.636,39.885L43.882,39.636L44.128,39.386L44.373,39.136L44.617,38.886L44.86,38.636L45.102,38.385L45.344,38.134L45.584,37.883L45.824,37.632L46.063,37.38L46.3,37.129L46.537,36.877L46.773,36.625L47.009,36.372L47.243,36.12L47.476,35.867L47.708,35.614L47.94,35.36L48.17,35.107L48.399,34.853L48.628,34.599L48.855,34.345L49.082,34.091L49.307,33.837L49.531,33.582L49.755,33.327L49.977,33.072L50.199,32.817L50.419,32.562L50.638,32.306L50.856,32.05L51.073,31.795L51.29,31.539L51.504,31.282L51.718,31.026L51.931,30.77L51.942,30.757L52.143,30.513L52.353,30.256L52.562,29.999L52.771,29.741L52.978,29.484L53.183,29.226L53.388,28.969L53.592,28.711L53.794,28.453L53.995,28.195L54.195,27.937L54.394,27.678L54.592,27.42L54.788,27.162L54.983,26.903L55.177,26.644L55.37,26.385L55.562,26.126L55.752,25.867L55.941,25.608L56.129,25.349L56.315,25.09L56.5,24.83L56.684,24.571L56.867,24.311L57.048,24.051L57.228,23.792L57.407,23.532L57.584,23.272L57.76,23.012L57.935,22.752L58.108,22.492L58.28,22.232L58.451,21.971L58.62,21.711L58.788,21.451L58.954,21.191L59.119,20.93L59.283,20.67L59.445,20.409L59.606,20.149L59.765,19.888L59.923,19.628L60.08,19.367L60.235,19.107L60.388,18.846L60.54,18.585L60.691,18.325L60.84,18.064L60.988,17.804L61.134,17.543L61.279,17.282L61.422,17.022L61.563,16.761L61.703,16.5L61.842,16.24L61.979,15.979L62.114,15.719L62.248,15.458L62.381,15.197L62.511,14.937L62.645,14.667L62.833,14.309L63.016,13.96L63.197,13.611L63.376,13.261L63.533,12.954L63.554,12.912L63.73,12.563L63.905,12.213L64.079,11.864L64.251,11.515L64.421,11.165L64.59,10.816L64.758,10.467L64.924,10.118L65.089,9.769L65.252,9.42L65.414,9.071L65.575,8.723L65.734,8.374L65.891,8.026L66.047,7.677L66.202,7.329L66.355,6.981L66.507,6.633L66.658,6.285L66.806,5.937L66.954,5.589L67.1,5.242L67.245,4.894L67.388,4.547L67.53,4.2L67.67,3.853L67.809,3.507L67.946,3.16L68.082,2.814L68.217,2.468L68.35,2.122L68.481,1.776L68.611,1.431L68.74,1.085L68.868,0.74L68.993,0.396L69.118,0.051L69.241,-0.293L69.362,-0.638L69.482,-0.982L69.601,-1.325L69.718,-1.669L69.834,-2.012L69.949,-2.355L70.061,-2.697L70.173,-3.039L70.283,-3.382L70.321,-3.501L70.391,-3.723L70.498,-4.065L70.603,-4.406L70.707,-4.747L70.81,-5.088L70.911,-5.428L71.01,-5.768L71.108,-6.108L71.205,-6.448L71.3,-6.787L71.394,-7.125L71.486,-7.464L71.577,-7.802L71.667,-8.139L71.755,-8.476L71.841,-8.813L71.926,-9.15L72.01,-9.486L72.092,-9.822L72.173,-10.157L72.252,-10.492L72.33,-10.826L72.407,-11.161L72.482,-11.494L72.556,-11.827L72.628,-12.16L72.699,-12.493L72.768,-12.825L72.836,-13.156L72.902,-13.487L72.967,-13.818L73.031,-14.148L73.093,-14.478L73.154,-14.807L73.213,-15.136L73.271,-15.464L73.327,-15.792L73.382,-16.119L73.394,-16.191L73.435,-16.446L73.487,-16.772L73.537,-17.098L73.586,-17.423L73.633,-17.748L73.679,-18.072L73.724,-18.396L73.767,-18.719L73.809,-19.042L73.849,-19.364L73.887,-19.685L73.925,-20.006L73.961,-20.327L73.995,-20.647L74.028,-20.966L74.06,-21.284L74.09,-21.602L74.119,-21.92L74.146,-22.237L74.172,-22.553L74.196,-22.869L74.219,-23.184L74.241,-23.498L74.261,-23.812L74.28,-24.125L74.297,-24.437L74.313,-24.749L74.327,-25.06L74.34,-25.371L74.352,-25.681L74.362,-25.99L74.371,-26.299L74.378,-26.606L74.384,-26.914L74.388,-27.22L74.391,-27.526L74.393,-27.831L74.393,-28.135L74.391,-28.439L74.389,-28.742L74.386,-28.955L74.384,-29.044L74.378,-29.346L74.371,-29.646L74.362,-29.947L74.351,-30.246L74.34,-30.544L74.326,-30.842L74.312,-31.139L74.296,-31.435L74.278,-31.731L74.259,-32.025L74.239,-32.319L74.217,-32.612L74.194,-32.905L74.169,-33.196L74.143,-33.487L74.116,-33.777L74.087,-34.066L74.057,-34.354L74.025,-34.641L73.992,-34.928L73.957,-35.214L73.921,-35.498L73.884,-35.782L73.845,-36.066L73.805,-36.348L73.763,-36.629L73.72,-36.91L73.676,-37.19L73.63,-37.468L73.583,-37.746L73.534,-38.023L73.484,-38.3L73.432,-38.575L73.379,-38.849L73.325,-39.123L73.269,-39.395L73.212,-39.667L73.154,-39.937L73.094,-40.207L73.032,-40.476L72.969,-40.744L72.905,-41.011L72.839,-41.276L72.772,-41.541L72.704,-41.805L72.634,-42.068L72.563,-42.331L72.49,-42.592L72.416,-42.852L72.341,-43.111L72.264,-43.369L72.185,-43.626L72.106,-43.882L72.025,-44.137L71.942,-44.391L71.858,-44.645L71.773,-44.897L71.686,-45.148L71.598,-45.398L71.508,-45.647L71.417,-45.894L71.325,-46.141L71.231,-46.387L71.136,-46.632L71.04,-46.876L70.942,-47.118L70.842,-47.36L70.742,-47.6L70.639,-47.84L70.536,-48.078L70.431,-48.315L70.324,-48.551L70.217,-48.786L70.108,-49.02L69.997,-49.253L69.885,-49.485L69.772,-49.715L69.657,-49.945L69.541,-50.173L69.423,-50.4L69.304,-50.626L69.184,-50.851L69.062,-51.075L68.939,-51.298L68.815,-51.519L68.689,-51.739L68.561,-51.958L68.479,-52.098L68.432,-52.176L68.302,-52.393L68.17,-52.608L68.037,-52.822L67.902,-53.035L67.766,-53.247L67.628,-53.457L67.489,-53.666L67.349,-53.874L67.207,-54.081L67.064,-54.287L66.919,-54.491L66.774,-54.694L66.626,-54.896L66.478,-55.097L66.328,-55.296L66.176,-55.494L66.023,-55.691L65.869,-55.887L65.713,-56.081L65.556,-56.274L65.398,-56.466L65.238,-56.657L65.077,-56.846L64.914,-57.034L64.75,-57.221L64.585,-57.406L64.418,-57.59L64.25,-57.773L64.08,-57.955L63.909,-58.135L63.737,-58.314L63.563,-58.491L63.388,-58.668L63.211,-58.842L63.033,-59.016L62.854,-59.188L62.673,-59.359L62.491,-59.529L62.307,-59.697L62.122,-59.864L61.936,-60.029L61.748,-60.193L61.559,-60.356L61.368,-60.517L61.176,-60.677L60.983,-60.836L60.789,-60.993L60.593,-61.149L60.396,-61.304L60.197,-61.457L59.998,-61.608L59.797,-61.759L59.595,-61.908L59.391,-62.055L59.187,-62.201L58.981,-62.346L58.774,-62.489L58.565,-62.63L58.356,-62.771L58.145,-62.909L57.933,-63.047L57.72,-63.183L57.506,-63.317L57.291,-63.45L57.075,-63.581L56.857,-63.711L56.639,-63.84L56.419,-63.967L56.198,-64.092L55.976,-64.216L55.754,-64.338L55.53,-64.459L55.305,-64.578L55.079,-64.696L54.852,-64.813L54.624,-64.927L54.395,-65.04L54.165,-65.152L53.934,-65.262L53.702,-65.371L53.47,-65.478L53.236,-65.583L53.001,-65.687L52.941,-65.713L52.766,-65.788L52.529,-65.889L52.292,-65.987L52.053,-66.084L51.814,-66.179L51.574,-66.273L51.333,-66.365L51.092,-66.455L50.849,-66.544L50.606,-66.631L50.362,-66.716L50.117,-66.8L49.871,-66.882L49.625,-66.963L49.378,-67.042L49.13,-67.119L48.882,-67.194L48.632,-67.268L48.382,-67.34L48.132,-67.41L47.881,-67.479L47.629,-67.546L47.376,-67.611L47.123,-67.675L46.869,-67.737L46.614,-67.797L46.359,-67.855L46.104,-67.912L45.847,-67.967L45.591,-68.02L45.333,-68.072L45.075,-68.121L44.817,-68.169L44.558,-68.215L44.298,-68.26L44.038,-68.302L43.778,-68.343L43.517,-68.382L43.256,-68.42L42.994,-68.455L42.731,-68.489L42.469,-68.521L42.205,-68.551L41.942,-68.579L41.678,-68.605L41.414,-68.63L41.149,-68.653L40.884,-68.674L40.618,-68.693L40.353,-68.71L40.086,-68.725L39.82,-68.739L39.553,-68.751L39.286,-68.76L39.019,-68.768L38.751,-68.774L38.484,-68.778L38.215,-68.781L37.947,-68.781L37.679,-68.78L37.41,-68.776L37.141,-68.771L36.872,-68.764L36.602,-68.755L36.333,-68.744L36.063,-68.731L35.793,-68.716L35.524,-68.699L35.26,-68.681L35.253,-68.68L34.983,-68.659L34.713,-68.635L34.443,-68.61L34.172,-68.583L33.902,-68.553L33.632,-68.522L33.361,-68.489L33.091,-68.454L32.82,-68.416L32.549,-68.377L32.279,-68.336L32.008,-68.293L31.738,-68.248L31.467,-68.2L31.197,-68.151L30.927,-68.1L30.657,-68.047L30.386,-67.992L30.116,-67.934L29.846,-67.875L29.577,-67.814L29.307,-67.75L29.037,-67.685L28.768,-67.617L28.499,-67.548L28.23,-67.476L27.961,-67.402L27.692,-67.327L27.424,-67.249L27.155,-67.169L26.887,-67.087L26.62,-67.003L26.352,-66.917L26.085,-66.828L25.818,-66.738L25.551,-66.645L25.285,-66.551L25.019,-66.454L24.753,-66.355L24.488,-66.254L24.223,-66.151L23.958,-66.046L23.694,-65.938L23.43,-65.829L23.166,-65.717L22.903,-65.603L22.64,-65.487L22.378,-65.369L22.116,-65.248L21.854,-65.126L21.593,-65.001L21.333,-64.874L21.073,-64.745L20.813,-64.614L20.554,-64.48L20.295,-64.345L20.037,-64.207L19.78,-64.067L19.523,-63.924L19.266,-63.78L19.01,-63.633L18.755,-63.484L18.5,-63.332L18.246,-63.179L17.992,-63.023L17.739,-62.865L17.487,-62.705L17.235,-62.542L16.984,-62.377L16.733,-62.21L16.484,-62.041L16.234,-61.869L15.986,-61.695L15.738,-61.519L15.491,-61.34L15.245,-61.159L14.999,-60.976L14.754,-60.791L14.51,-60.603L14.267,-60.413L14.024,-60.22L13.783,-60.026L13.542,-59.828L13.301,-59.629L13.062,-59.427L12.823,-59.223L12.586,-59.016L12.349,-58.807L12.113,-58.596L11.877,-58.382L11.643,-58.166L11.41,-57.948L11.177,-57.727L10.945,-57.503L10.714,-57.278L10.485,-57.05L10.256,-56.819L10.133,-56.693L10.028,-56.586L9.802,-56.35L9.576,-56.111L9.352,-55.87L9.128,-55.627L8.906,-55.381L8.684,-55.133L8.464,-54.882L8.244,-54.629L8.026,-54.373L7.808,-54.115L7.592,-53.855L7.377,-53.592L7.163,-53.326L6.95,-53.058L6.738,-52.787L6.527,-52.514L6.318,-52.239L6.109,-51.961L5.902,-51.68L5.696,-51.397L5.491,-51.111L5.287,-50.823L5.084,-50.532L4.883,-50.238L4.683,-49.943L4.484,-49.644L4.286,-49.343L4.089,-49.039L3.894,-48.733L3.7,-48.424L3.508,-48.113L3.316,-47.798L3.126,-47.482L2.937,-47.162L2.75,-46.84L2.564,-46.516L2.379,-46.189L2.195,-45.859L2.013,-45.526L1.833,-45.191L1.653,-44.853L1.552,-44.658L1.476,-44.513L1.297,-44.164L1.146,-43.929L0.961,-43.725Z"/>
                </g>
                <g id="Cake" transform="matrix(0.515434,0,0,2.66511,494.238,-1199.23)">
                    <path d="M199.851,599.921L199.851,649.643L280.213,670.277L280.213,619.964L199.851,599.921Z" style="fill:none;stroke:black;stroke-width:3.23px;"/>
                    <g transform="matrix(1.21228,0,0,1,-59.4029,0.115464)">
                        <path d="M234.844,588.053L280.213,619.964" style="fill:none;stroke:black;stroke-width:2.87px;"/>
                    </g>
                    <path d="M199.851,619.582L280.213,640.344" style="fill:none;stroke:black;stroke-width:0.97px;"/>
                    <g transform="matrix(1,0,0,1,-0.631245,16.383)">
                        <path d="M199.851,619.582L280.213,640.344" style="fill:none;stroke:black;stroke-width:0.97px;"/>
                    </g>
                    <path d="M199.962,599.858C199.962,599.858 209.315,583.659 225.656,588.335" style="fill:none;stroke:black;stroke-width:3.23px;"/>
                </g>
                <g id="BasketBall" transform="matrix(0.276893,0.968984,-0.171264,1.66755,386.75,-1033.15)">
                    <g transform="matrix(1.03178,5.55112e-17,5.55112e-17,1,405.45,597.551)">
                        <circle cx="0" cy="0" r="60.46" style="fill:white;stroke:black;stroke-width:4.72px;"/>
                    </g>
                    <path d="M343.247,602.223C343.247,602.223 363.861,587.713 385.288,607.074C406.714,626.435 397.92,650.797 398.112,658.431" style="fill:none;stroke:black;stroke-width:4.79px;"/>
                    <path d="M403.529,537.091C403.529,537.091 381.697,550.891 408.616,578.457C435.536,606.023 461.065,588.727 464.188,589.623" style="fill:none;stroke:black;stroke-width:4.79px;"/>
                    <path d="M446.487,555.023C446.487,555.023 387.728,573.136 367.92,646.404" style="fill:none;stroke:black;stroke-width:4.79px;"/>
                    <path d="M362.845,552.843C362.845,552.843 389.618,602.699 448.237,638.235" style="fill:none;stroke:black;stroke-width:4.79px;"/>
                </g>
                <g id="Book" transform="matrix(0.377137,0,0,2.20144,252.094,-834.831)">
                    <g transform="matrix(1,0,0,1,16.8972,-10.0911)">
                        <path d="M179.76,538.87L179.76,658.553L261.254,679.671L261.254,558.56L179.76,538.87Z" style="fill:none;stroke:black;stroke-width:4.17px;"/>
                    </g>
                    <path d="M179.76,538.87L179.76,658.553L261.254,679.671L261.254,558.56L179.76,538.87Z" style="fill:white;stroke:black;stroke-width:4.17px;"/>
                    <g transform="matrix(1,0,0,1,-0.265639,-0.073992)">
                        <path d="M180.877,539.084C177.886,538.149 179.022,526.783 196.657,528.779" style="fill:none;stroke:black;stroke-width:4.17px;"/>
                    </g>
                    <g transform="matrix(0.999067,0,0,0.959981,0.181656,21.4804)">
                        <path d="M194.702,530.605L198.596,531.386L198.651,541.178L194.701,540.278L194.702,530.605Z" style="fill:white;stroke:white;stroke-width:0.43px;"/>
                    </g>
                    <g transform="matrix(0.999739,0.0228394,-0.0248815,1.08912,16.6495,-65.4808)">
                        <path d="M263.276,663.627C263.234,663.592 269.066,665.133 269.066,665.133L264.818,668.16L263.373,667.839C263.373,667.839 263.318,663.662 263.276,663.627Z" style="fill:white;"/>
                    </g>
                    <g transform="matrix(1,0,0,1,7.86938,-135.745)">
                        <path d="M180.049,669.945L260.219,689.789" style="fill:none;stroke:black;stroke-width:1.04px;"/>
                    </g>
                    <g transform="matrix(1,0,0,1,0.909559,-1.1385)">
                        <path d="M272.04,551.416L272.04,664.401" style="fill:none;stroke:black;stroke-width:1.25px;"/>
                    </g>
                    <g transform="matrix(1,0,0,1,-1.96727,0.0612085)">
                        <path d="M272.04,551.416L272.04,664.401" style="fill:none;stroke:black;stroke-width:1.25px;"/>
                    </g>
                    <g transform="matrix(1,0,0,1,-4.46281,2.28959)">
                        <path d="M272.04,551.416L272.04,664.401" style="fill:none;stroke:black;stroke-width:1.25px;"/>
                    </g>
                    <g transform="matrix(1,0,0,1,-6.96649,3.87936)">
                        <path d="M272.04,551.416L272.04,664.401" style="fill:none;stroke:black;stroke-width:1.25px;"/>
                    </g>
                    <g transform="matrix(1,0,0,1,5.3593,-134.127)">
                        <path d="M180.049,669.945L260.219,689.789" style="fill:none;stroke:black;stroke-width:1.04px;"/>
                    </g>
                    <g transform="matrix(1,0,0,1,13.2342,-139.103)">
                        <path d="M180.049,669.945L260.219,689.789" style="fill:none;stroke:black;stroke-width:1.04px;"/>
                    </g>
                    <g transform="matrix(1,0,0,1,10.3504,-137.784)">
                        <path d="M180.049,669.945L260.219,689.789" style="fill:none;stroke:black;stroke-width:1.04px;"/>
                    </g>
                    <path d="M180.508,538.37L196.827,528.722" style="fill:none;stroke:black;stroke-width:1.04px;"/>
                    <g transform="matrix(0.915158,0,0,0.945421,22.2346,36.5672)">
                        <path d="M274.259,662.315L262.07,669.981" style="fill:none;stroke:black;stroke-width:1.34px;"/>
                    </g>
                </g>
                <g id="Style" transform="matrix(0.149442,0,0,1.06411,385.992,96.6885)">
                    <g transform="matrix(2.52364,0,0,2.0688,-748.677,-324.912)">
                        <text x="491.585px" y="372.122px" style="font-family:'AbeatbyKai', 'abeatbyKai';font-size:62.5px;fill:none;">Style</text>
                    </g>
                    <g transform="matrix(2.52364,0,0,2.0688,-748.677,-324.912)">
                        <text x="491.585px" y="372.122px" style="font-family:'AbeatbyKai', 'abeatbyKai';font-size:62.5px;fill:rgb(0,132,255);">Style</text>
                    </g>
                </g>
                <g id="Life" transform="matrix(0.104527,0,0,1.01422,397.093,114.499)">
                    <g transform="matrix(3.60805,0,0,2.17057,-1281.53,-355.849)">
                        <text x="491.702px" y="334.622px" style="font-family:'AbeatbyKai', 'abeatbyKai';font-size:62.5px;fill:none;">Life</text>
                    </g>
                    <g transform="matrix(3.60805,0,0,2.17057,-1281.53,-355.849)">
                        <text x="491.702px" y="334.622px" style="font-family:'AbeatbyKai', 'abeatbyKai';font-size:62.5px;fill:rgb(0,132,255);">Life</text>
                    </g>
                </g>
            </g>
            <path d="M664.807,278.432C664.807,266.282 663.117,256.417 661.036,256.417L291.442,256.417C289.36,256.417 287.67,266.282 287.67,278.432L287.67,674.691C287.67,686.841 289.36,696.705 291.442,696.705L661.036,696.705C663.117,696.705 664.807,686.841 664.807,674.691L664.807,278.432Z" style="fill:none;stroke:black;stroke-width:3.29px;"/>
        </g>
    </g>
</svg>
